%TF.GenerationSoftware,KiCad,Pcbnew,(5.1.10)-1*%
%TF.CreationDate,2021-08-29T21:53:33+02:00*%
%TF.ProjectId,giulia,6769756c-6961-42e6-9b69-6361645f7063,rev?*%
%TF.SameCoordinates,Original*%
%TF.FileFunction,Legend,Bot*%
%TF.FilePolarity,Positive*%
%FSLAX46Y46*%
G04 Gerber Fmt 4.6, Leading zero omitted, Abs format (unit mm)*
G04 Created by KiCad (PCBNEW (5.1.10)-1) date 2021-08-29 21:53:33*
%MOMM*%
%LPD*%
G01*
G04 APERTURE LIST*
%ADD10C,0.150000*%
%ADD11C,0.010000*%
%ADD12C,0.120000*%
%ADD13C,1.397000*%
%ADD14C,4.500000*%
%ADD15R,1.600000X1.600000*%
%ADD16O,1.600000X1.600000*%
%ADD17O,1.100000X1.650000*%
%ADD18O,1.700000X2.700000*%
%ADD19C,1.600000*%
%ADD20C,2.250000*%
%ADD21C,3.987800*%
%ADD22C,1.750000*%
%ADD23C,3.048000*%
%ADD24O,1.700000X1.700000*%
%ADD25R,1.700000X1.700000*%
%ADD26C,1.500000*%
%ADD27C,2.000000*%
%ADD28C,1.270000*%
%ADD29R,1.500000X1.000000*%
%ADD30R,1.000000X1.500000*%
G04 APERTURE END LIST*
D10*
X262284595Y-23884000D02*
X262379833Y-23836380D01*
X262522690Y-23836380D01*
X262665547Y-23884000D01*
X262760785Y-23979238D01*
X262808404Y-24074476D01*
X262856023Y-24264952D01*
X262856023Y-24407809D01*
X262808404Y-24598285D01*
X262760785Y-24693523D01*
X262665547Y-24788761D01*
X262522690Y-24836380D01*
X262427452Y-24836380D01*
X262284595Y-24788761D01*
X262236976Y-24741142D01*
X262236976Y-24407809D01*
X262427452Y-24407809D01*
X261808404Y-24836380D02*
X261808404Y-24169714D01*
X261808404Y-23836380D02*
X261856023Y-23884000D01*
X261808404Y-23931619D01*
X261760785Y-23884000D01*
X261808404Y-23836380D01*
X261808404Y-23931619D01*
X260903642Y-24169714D02*
X260903642Y-24836380D01*
X261332214Y-24169714D02*
X261332214Y-24693523D01*
X261284595Y-24788761D01*
X261189357Y-24836380D01*
X261046500Y-24836380D01*
X260951261Y-24788761D01*
X260903642Y-24741142D01*
X260284595Y-24836380D02*
X260379833Y-24788761D01*
X260427452Y-24693523D01*
X260427452Y-23836380D01*
X259903642Y-24836380D02*
X259903642Y-24169714D01*
X259903642Y-23836380D02*
X259951261Y-23884000D01*
X259903642Y-23931619D01*
X259856023Y-23884000D01*
X259903642Y-23836380D01*
X259903642Y-23931619D01*
X258998880Y-24836380D02*
X258998880Y-24312571D01*
X259046500Y-24217333D01*
X259141738Y-24169714D01*
X259332214Y-24169714D01*
X259427452Y-24217333D01*
X258998880Y-24788761D02*
X259094119Y-24836380D01*
X259332214Y-24836380D01*
X259427452Y-24788761D01*
X259475071Y-24693523D01*
X259475071Y-24598285D01*
X259427452Y-24503047D01*
X259332214Y-24455428D01*
X259094119Y-24455428D01*
X258998880Y-24407809D01*
X258475071Y-24788761D02*
X258475071Y-24836380D01*
X258522690Y-24931619D01*
X258570309Y-24979238D01*
X257284595Y-24836380D02*
X257284595Y-24169714D01*
X257284595Y-24360190D02*
X257236976Y-24264952D01*
X257189357Y-24217333D01*
X257094119Y-24169714D01*
X256998880Y-24169714D01*
X256284595Y-24788761D02*
X256379833Y-24836380D01*
X256570309Y-24836380D01*
X256665547Y-24788761D01*
X256713166Y-24693523D01*
X256713166Y-24312571D01*
X256665547Y-24217333D01*
X256570309Y-24169714D01*
X256379833Y-24169714D01*
X256284595Y-24217333D01*
X256236976Y-24312571D01*
X256236976Y-24407809D01*
X256713166Y-24503047D01*
X255903642Y-24169714D02*
X255665547Y-24836380D01*
X255427452Y-24169714D01*
X255046500Y-24741142D02*
X254998880Y-24788761D01*
X255046500Y-24836380D01*
X255094119Y-24788761D01*
X255046500Y-24741142D01*
X255046500Y-24836380D01*
X253284595Y-24836380D02*
X253856023Y-24836380D01*
X253570309Y-24836380D02*
X253570309Y-23836380D01*
X253665547Y-23979238D01*
X253760785Y-24074476D01*
X253856023Y-24122095D01*
X252808404Y-24788761D02*
X252808404Y-24836380D01*
X252856023Y-24931619D01*
X252903642Y-24979238D01*
X251760785Y-23836380D02*
X251189357Y-23836380D01*
X251475071Y-24836380D02*
X251475071Y-23836380D01*
X250427452Y-24169714D02*
X250427452Y-24836380D01*
X250856023Y-24169714D02*
X250856023Y-24693523D01*
X250808404Y-24788761D01*
X250713166Y-24836380D01*
X250570309Y-24836380D01*
X250475071Y-24788761D01*
X250427452Y-24741142D01*
X249379833Y-24741142D02*
X249427452Y-24788761D01*
X249570309Y-24836380D01*
X249665547Y-24836380D01*
X249808404Y-24788761D01*
X249903642Y-24693523D01*
X249951261Y-24598285D01*
X249998880Y-24407809D01*
X249998880Y-24264952D01*
X249951261Y-24074476D01*
X249903642Y-23979238D01*
X249808404Y-23884000D01*
X249665547Y-23836380D01*
X249570309Y-23836380D01*
X249427452Y-23884000D01*
X249379833Y-23931619D01*
X249046500Y-23836380D02*
X248379833Y-23836380D01*
X249046500Y-24836380D01*
X248379833Y-24836380D01*
X247998880Y-24169714D02*
X247998880Y-24836380D01*
X247998880Y-24264952D02*
X247951261Y-24217333D01*
X247856023Y-24169714D01*
X247713166Y-24169714D01*
X247617928Y-24217333D01*
X247570309Y-24312571D01*
X247570309Y-24836380D01*
X246665547Y-24836380D02*
X246665547Y-24312571D01*
X246713166Y-24217333D01*
X246808404Y-24169714D01*
X246998880Y-24169714D01*
X247094119Y-24217333D01*
X246665547Y-24788761D02*
X246760785Y-24836380D01*
X246998880Y-24836380D01*
X247094119Y-24788761D01*
X247141738Y-24693523D01*
X247141738Y-24598285D01*
X247094119Y-24503047D01*
X246998880Y-24455428D01*
X246760785Y-24455428D01*
X246665547Y-24407809D01*
X246189357Y-24836380D02*
X246189357Y-23836380D01*
X246094119Y-24455428D02*
X245808404Y-24836380D01*
X245808404Y-24169714D02*
X246189357Y-24550666D01*
X245332214Y-24788761D02*
X245332214Y-24836380D01*
X245379833Y-24931619D01*
X245427452Y-24979238D01*
X244189357Y-23931619D02*
X244141738Y-23884000D01*
X244046500Y-23836380D01*
X243808404Y-23836380D01*
X243713166Y-23884000D01*
X243665547Y-23931619D01*
X243617928Y-24026857D01*
X243617928Y-24122095D01*
X243665547Y-24264952D01*
X244236976Y-24836380D01*
X243617928Y-24836380D01*
X242998880Y-23836380D02*
X242903642Y-23836380D01*
X242808404Y-23884000D01*
X242760785Y-23931619D01*
X242713166Y-24026857D01*
X242665547Y-24217333D01*
X242665547Y-24455428D01*
X242713166Y-24645904D01*
X242760785Y-24741142D01*
X242808404Y-24788761D01*
X242903642Y-24836380D01*
X242998880Y-24836380D01*
X243094119Y-24788761D01*
X243141738Y-24741142D01*
X243189357Y-24645904D01*
X243236976Y-24455428D01*
X243236976Y-24217333D01*
X243189357Y-24026857D01*
X243141738Y-23931619D01*
X243094119Y-23884000D01*
X242998880Y-23836380D01*
X242284595Y-23931619D02*
X242236976Y-23884000D01*
X242141738Y-23836380D01*
X241903642Y-23836380D01*
X241808404Y-23884000D01*
X241760785Y-23931619D01*
X241713166Y-24026857D01*
X241713166Y-24122095D01*
X241760785Y-24264952D01*
X242332214Y-24836380D01*
X241713166Y-24836380D01*
X240760785Y-24836380D02*
X241332214Y-24836380D01*
X241046500Y-24836380D02*
X241046500Y-23836380D01*
X241141738Y-23979238D01*
X241236976Y-24074476D01*
X241332214Y-24122095D01*
D11*
%TO.C,G2*%
G36*
X57889854Y-63908232D02*
G01*
X57982013Y-64005479D01*
X58110482Y-64219136D01*
X58151274Y-64291278D01*
X58463404Y-64731212D01*
X58878298Y-65159399D01*
X59337378Y-65520679D01*
X59649807Y-65702369D01*
X59856170Y-65800778D01*
X60045652Y-65883757D01*
X60234408Y-65952712D01*
X60438592Y-66009047D01*
X60674360Y-66054167D01*
X60957866Y-66089477D01*
X61305265Y-66116381D01*
X61732712Y-66136285D01*
X62256361Y-66150592D01*
X62892367Y-66160708D01*
X63656885Y-66168037D01*
X64566071Y-66173984D01*
X65108667Y-66177037D01*
X66129450Y-66183038D01*
X66995192Y-66189316D01*
X67720183Y-66196560D01*
X68318714Y-66205459D01*
X68805076Y-66216703D01*
X69193560Y-66230982D01*
X69498458Y-66248986D01*
X69734059Y-66271402D01*
X69914655Y-66298922D01*
X70054538Y-66332235D01*
X70167997Y-66372029D01*
X70269325Y-66418996D01*
X70284475Y-66426761D01*
X70736625Y-66734665D01*
X71177542Y-67168903D01*
X71573489Y-67687977D01*
X71890725Y-68250390D01*
X72017900Y-68558833D01*
X72175746Y-69003333D01*
X79100309Y-69003333D01*
X79043893Y-69363166D01*
X78939529Y-69756561D01*
X78749869Y-70223252D01*
X78500800Y-70708815D01*
X78218211Y-71158829D01*
X78135978Y-71271880D01*
X77713600Y-71733516D01*
X77184541Y-72164263D01*
X76610698Y-72517259D01*
X76303697Y-72659167D01*
X76189000Y-72703856D01*
X76075781Y-72741331D01*
X75948304Y-72772408D01*
X75790837Y-72797903D01*
X75587645Y-72818633D01*
X75322995Y-72835413D01*
X74981152Y-72849059D01*
X74546382Y-72860388D01*
X74002952Y-72870215D01*
X73335128Y-72879357D01*
X72527177Y-72888629D01*
X71712667Y-72897284D01*
X70771206Y-72907398D01*
X69983994Y-72916774D01*
X69335950Y-72926156D01*
X68811996Y-72936285D01*
X68397052Y-72947906D01*
X68076039Y-72961761D01*
X67833877Y-72978594D01*
X67655489Y-72999147D01*
X67525794Y-73024165D01*
X67429714Y-73054389D01*
X67352168Y-73090563D01*
X67310288Y-73114244D01*
X66943987Y-73413712D01*
X66716922Y-73780631D01*
X66629182Y-74185954D01*
X66680853Y-74600637D01*
X66872023Y-74995635D01*
X67202778Y-75341903D01*
X67303369Y-75414818D01*
X67589041Y-75607333D01*
X71407687Y-75610287D01*
X72438986Y-75612506D01*
X73316946Y-75618306D01*
X74057550Y-75628986D01*
X74676777Y-75645843D01*
X75190607Y-75670174D01*
X75615020Y-75703278D01*
X75965998Y-75746452D01*
X76259521Y-75800994D01*
X76511568Y-75868203D01*
X76738120Y-75949375D01*
X76955158Y-76045809D01*
X76992286Y-76063827D01*
X77619509Y-76464862D01*
X78154054Y-77007222D01*
X78595321Y-77690120D01*
X78942709Y-78512768D01*
X79000745Y-78693597D01*
X79047860Y-78906415D01*
X79042710Y-79037213D01*
X79027375Y-79053248D01*
X78933196Y-79057247D01*
X78682039Y-79061535D01*
X78286257Y-79066033D01*
X77758205Y-79070664D01*
X77110237Y-79075351D01*
X76354707Y-79080017D01*
X75503969Y-79084583D01*
X74570379Y-79088973D01*
X73566289Y-79093108D01*
X72504054Y-79096913D01*
X71625694Y-79099651D01*
X64299721Y-79121000D01*
X63879468Y-79337293D01*
X63444001Y-79647503D01*
X63134996Y-80047709D01*
X62957884Y-80509474D01*
X62918098Y-81004363D01*
X63021070Y-81503942D01*
X63272231Y-81979775D01*
X63354328Y-82086269D01*
X63442679Y-82196544D01*
X63521632Y-82293157D01*
X63602367Y-82377012D01*
X63696063Y-82449015D01*
X63813901Y-82510069D01*
X63967060Y-82561079D01*
X64166720Y-82602950D01*
X64424062Y-82636585D01*
X64750265Y-82662891D01*
X65156509Y-82682770D01*
X65653974Y-82697128D01*
X66253839Y-82706869D01*
X66967286Y-82712898D01*
X67805494Y-82716119D01*
X68779642Y-82717436D01*
X69900911Y-82717755D01*
X71162333Y-82717973D01*
X72483886Y-82718719D01*
X73648445Y-82720416D01*
X74668348Y-82723696D01*
X75555934Y-82729194D01*
X76323542Y-82737543D01*
X76983509Y-82749377D01*
X77548176Y-82765329D01*
X78029880Y-82786034D01*
X78440960Y-82812125D01*
X78793754Y-82844235D01*
X79100602Y-82883000D01*
X79373842Y-82929051D01*
X79625813Y-82983023D01*
X79868853Y-83045551D01*
X80115300Y-83117266D01*
X80349018Y-83189813D01*
X81494214Y-83638134D01*
X82568705Y-84232475D01*
X83557912Y-84959321D01*
X84447252Y-85805160D01*
X85222144Y-86756477D01*
X85868007Y-87799759D01*
X86279925Y-88686340D01*
X86519684Y-89327822D01*
X86693105Y-89907628D01*
X86811423Y-90481669D01*
X86885873Y-91105857D01*
X86927690Y-91836106D01*
X86930783Y-91925398D01*
X86927734Y-92999070D01*
X86837654Y-93965289D01*
X86651730Y-94866790D01*
X86361146Y-95746306D01*
X85957087Y-96646571D01*
X85956873Y-96647000D01*
X85576671Y-97335965D01*
X85148798Y-97965674D01*
X84634459Y-98589773D01*
X84262615Y-98989662D01*
X83493508Y-99701385D01*
X82642647Y-100336053D01*
X81749500Y-100868240D01*
X80853538Y-101272519D01*
X80560333Y-101374700D01*
X80335224Y-101447947D01*
X80137027Y-101512427D01*
X79953998Y-101568756D01*
X79774391Y-101617549D01*
X79586458Y-101659421D01*
X79378456Y-101694989D01*
X79138637Y-101724867D01*
X78855255Y-101749670D01*
X78516566Y-101770015D01*
X78110822Y-101786516D01*
X77626278Y-101799789D01*
X77051188Y-101810449D01*
X76373806Y-101819112D01*
X75582386Y-101826393D01*
X74665182Y-101832907D01*
X73610449Y-101839269D01*
X72406440Y-101846096D01*
X71458667Y-101851538D01*
X70117301Y-101859101D01*
X68934731Y-101865679D01*
X67900432Y-101872086D01*
X67003874Y-101879134D01*
X66234533Y-101887636D01*
X65581879Y-101898406D01*
X65035386Y-101912256D01*
X64584528Y-101930000D01*
X64218776Y-101952450D01*
X63927605Y-101980420D01*
X63700485Y-102014723D01*
X63526892Y-102056172D01*
X63396297Y-102105579D01*
X63298173Y-102163759D01*
X63221994Y-102231523D01*
X63157231Y-102309686D01*
X63093359Y-102399059D01*
X63019850Y-102500457D01*
X63017543Y-102503486D01*
X62884947Y-102701439D01*
X62812987Y-102896070D01*
X62784187Y-103152230D01*
X62780333Y-103383687D01*
X62804870Y-103781030D01*
X62896267Y-104062627D01*
X63081208Y-104277228D01*
X63372800Y-104466168D01*
X63429648Y-104490658D01*
X63512605Y-104512355D01*
X63632283Y-104531515D01*
X63799291Y-104548394D01*
X64024239Y-104563248D01*
X64317738Y-104576334D01*
X64690397Y-104587909D01*
X65152827Y-104598229D01*
X65715638Y-104607551D01*
X66389439Y-104616131D01*
X67184841Y-104624225D01*
X68112454Y-104632091D01*
X69182889Y-104639983D01*
X70406754Y-104648160D01*
X71077667Y-104652424D01*
X72403262Y-104660522D01*
X73571148Y-104667710D01*
X74592940Y-104674844D01*
X75480252Y-104682777D01*
X76244699Y-104692363D01*
X76897896Y-104704458D01*
X77451457Y-104719916D01*
X77916997Y-104739591D01*
X78306132Y-104764339D01*
X78630475Y-104795013D01*
X78901642Y-104832468D01*
X79131247Y-104877558D01*
X79330906Y-104931139D01*
X79512232Y-104994065D01*
X79686842Y-105067189D01*
X79866349Y-105151368D01*
X80062368Y-105247454D01*
X80221667Y-105325176D01*
X81071049Y-105825393D01*
X81825416Y-106452327D01*
X82469575Y-107186962D01*
X82988332Y-108010282D01*
X83366493Y-108903271D01*
X83516026Y-109448380D01*
X83607461Y-110053377D01*
X83644419Y-110745148D01*
X83626889Y-111450129D01*
X83554858Y-112094760D01*
X83516524Y-112293619D01*
X83322778Y-112938836D01*
X83027446Y-113627977D01*
X82661365Y-114299427D01*
X82255369Y-114891570D01*
X82153335Y-115017514D01*
X81550483Y-115621778D01*
X80823750Y-116165119D01*
X80014729Y-116622569D01*
X79165011Y-116969163D01*
X78667001Y-117110241D01*
X78494648Y-117130672D01*
X78157387Y-117150356D01*
X77659644Y-117169194D01*
X77005841Y-117187089D01*
X76200405Y-117203942D01*
X75247759Y-117219656D01*
X74152328Y-117234133D01*
X72918537Y-117247276D01*
X72161780Y-117254076D01*
X66049227Y-117305666D01*
X65746644Y-117599027D01*
X65472593Y-117961489D01*
X65324287Y-118373810D01*
X65318794Y-118786809D01*
X65324434Y-118815584D01*
X65446302Y-119127076D01*
X65656378Y-119442060D01*
X65902651Y-119687295D01*
X65979941Y-119738696D01*
X66071660Y-119765887D01*
X66252712Y-119789731D01*
X66534050Y-119810621D01*
X66926629Y-119828949D01*
X67441400Y-119845108D01*
X68089318Y-119859490D01*
X68881336Y-119872487D01*
X69828407Y-119884491D01*
X70148379Y-119888000D01*
X74129758Y-119930333D01*
X74717603Y-120219859D01*
X75373952Y-120634572D01*
X75920624Y-121170484D01*
X76344138Y-121809438D01*
X76631016Y-122533280D01*
X76717688Y-122913819D01*
X76760877Y-123630064D01*
X76647595Y-124331441D01*
X76390005Y-124991310D01*
X76000270Y-125583033D01*
X75490555Y-126079974D01*
X75172412Y-126297914D01*
X74915694Y-126442993D01*
X74667223Y-126559366D01*
X74404652Y-126650135D01*
X74105632Y-126718399D01*
X73747814Y-126767260D01*
X73308850Y-126799816D01*
X72766390Y-126819168D01*
X72098087Y-126828416D01*
X71331818Y-126830666D01*
X70633209Y-126831157D01*
X70082450Y-126833620D01*
X69658057Y-126839545D01*
X69338547Y-126850418D01*
X69102436Y-126867730D01*
X68928242Y-126892967D01*
X68794481Y-126927617D01*
X68679671Y-126973170D01*
X68581730Y-127021166D01*
X68207526Y-127268497D01*
X67973990Y-127573486D01*
X67854885Y-127975474D01*
X67835939Y-128139488D01*
X67806078Y-128395086D01*
X67769642Y-128564688D01*
X67744016Y-128606743D01*
X67648690Y-128568348D01*
X67446482Y-128468873D01*
X67178885Y-128328832D01*
X67144820Y-128310529D01*
X66551009Y-127930456D01*
X66112674Y-127516663D01*
X65832816Y-127074883D01*
X65714438Y-126610844D01*
X65760541Y-126130279D01*
X65859235Y-125856273D01*
X66100113Y-125485529D01*
X66455519Y-125137550D01*
X66872811Y-124862070D01*
X66953318Y-124822687D01*
X67059495Y-124782479D01*
X67198826Y-124749363D01*
X67389538Y-124722254D01*
X67649856Y-124700065D01*
X67998006Y-124681710D01*
X68452214Y-124666103D01*
X69030707Y-124652156D01*
X69751710Y-124638784D01*
X70146333Y-124632368D01*
X70999055Y-124617026D01*
X71694355Y-124600087D01*
X72244141Y-124580955D01*
X72660323Y-124559032D01*
X72954808Y-124533722D01*
X73139506Y-124504429D01*
X73214623Y-124478656D01*
X73463077Y-124246608D01*
X73616430Y-123918387D01*
X73663870Y-123544688D01*
X73594582Y-123176205D01*
X73524020Y-123028264D01*
X73448911Y-122906798D01*
X73369668Y-122806082D01*
X73270624Y-122724166D01*
X73136112Y-122659098D01*
X72950466Y-122608927D01*
X72698018Y-122571703D01*
X72363102Y-122545475D01*
X71930051Y-122528292D01*
X71383197Y-122518203D01*
X70706874Y-122513257D01*
X69885415Y-122511504D01*
X69371538Y-122511196D01*
X68417802Y-122509632D01*
X67615390Y-122504613D01*
X66946298Y-122494326D01*
X66392524Y-122476956D01*
X65936066Y-122450692D01*
X65558921Y-122413719D01*
X65243088Y-122364226D01*
X64970563Y-122300399D01*
X64723344Y-122220424D01*
X64483429Y-122122489D01*
X64232816Y-122004782D01*
X64204311Y-121990789D01*
X63577521Y-121595585D01*
X63005070Y-121068151D01*
X62514406Y-120443445D01*
X62132983Y-119756422D01*
X61888251Y-119042038D01*
X61888086Y-119041333D01*
X61809333Y-118514444D01*
X61788055Y-117911452D01*
X61824103Y-117315482D01*
X61891943Y-116908868D01*
X62135190Y-116202181D01*
X62517733Y-115515245D01*
X63010495Y-114885812D01*
X63584398Y-114351637D01*
X64144201Y-113984616D01*
X64334632Y-113884755D01*
X64511837Y-113798331D01*
X64689067Y-113724372D01*
X64879574Y-113661903D01*
X65096612Y-113609950D01*
X65353432Y-113567539D01*
X65663286Y-113533696D01*
X66039427Y-113507447D01*
X66495107Y-113487819D01*
X67043578Y-113473836D01*
X67698092Y-113464525D01*
X68471902Y-113458912D01*
X69378260Y-113456023D01*
X70430418Y-113454884D01*
X71355553Y-113454584D01*
X72501859Y-113454224D01*
X73491368Y-113453161D01*
X74336614Y-113450599D01*
X75050133Y-113445740D01*
X75644459Y-113437788D01*
X76132128Y-113425946D01*
X76525675Y-113409418D01*
X76837636Y-113387407D01*
X77080545Y-113359116D01*
X77266938Y-113323748D01*
X77409350Y-113280508D01*
X77520317Y-113228598D01*
X77612373Y-113167221D01*
X77698054Y-113095581D01*
X77750736Y-113048137D01*
X78018848Y-112700852D01*
X78153232Y-112292970D01*
X78157939Y-111862331D01*
X78037022Y-111446777D01*
X77794531Y-111084149D01*
X77516203Y-110857870D01*
X77465661Y-110831286D01*
X77400164Y-110807765D01*
X77309236Y-110787043D01*
X77182400Y-110768860D01*
X77009179Y-110752952D01*
X76779097Y-110739057D01*
X76481675Y-110726914D01*
X76106438Y-110716259D01*
X75642909Y-110706831D01*
X75080610Y-110698368D01*
X74409064Y-110690607D01*
X73617795Y-110683286D01*
X72696326Y-110676143D01*
X71634179Y-110668915D01*
X70420878Y-110661341D01*
X69426667Y-110655401D01*
X68097239Y-110647463D01*
X66926074Y-110640139D01*
X65902101Y-110633132D01*
X65014253Y-110626148D01*
X64251459Y-110618891D01*
X63602651Y-110611065D01*
X63056759Y-110602377D01*
X62602715Y-110592529D01*
X62229450Y-110581228D01*
X61925895Y-110568177D01*
X61680980Y-110553081D01*
X61483636Y-110535646D01*
X61322796Y-110515575D01*
X61187388Y-110492573D01*
X61066346Y-110466345D01*
X60948598Y-110436596D01*
X60917667Y-110428384D01*
X59746397Y-110035218D01*
X58674348Y-109510857D01*
X57708721Y-108862520D01*
X56856714Y-108097424D01*
X56125529Y-107222788D01*
X55522366Y-106245831D01*
X55054424Y-105173771D01*
X54790121Y-104285267D01*
X54597673Y-103134809D01*
X54568648Y-101974633D01*
X54699127Y-100820924D01*
X54985193Y-99689863D01*
X55422926Y-98597634D01*
X56008409Y-97560421D01*
X56617984Y-96735731D01*
X57275943Y-96052378D01*
X58064323Y-95416625D01*
X58945866Y-94852456D01*
X59883315Y-94383859D01*
X60790667Y-94049387D01*
X61425667Y-93857289D01*
X77935667Y-93768333D01*
X78248899Y-93573565D01*
X78623914Y-93249988D01*
X78854754Y-92838695D01*
X78937023Y-92347558D01*
X78937081Y-92342206D01*
X78876907Y-91855860D01*
X78677269Y-91454978D01*
X78344581Y-91126876D01*
X78033650Y-90889666D01*
X69433325Y-90841925D01*
X68024239Y-90833912D01*
X66774127Y-90826291D01*
X65672630Y-90818840D01*
X64709392Y-90811340D01*
X63874053Y-90803570D01*
X63156255Y-90795309D01*
X62545641Y-90786338D01*
X62031851Y-90776435D01*
X61604528Y-90765380D01*
X61253314Y-90752952D01*
X60967851Y-90738932D01*
X60737780Y-90723097D01*
X60552742Y-90705229D01*
X60402381Y-90685107D01*
X60276338Y-90662509D01*
X60198000Y-90645328D01*
X58760505Y-90227383D01*
X57396533Y-89669003D01*
X56115839Y-88978875D01*
X54928179Y-88165687D01*
X53843310Y-87238124D01*
X52870988Y-86204874D01*
X52020970Y-85074625D01*
X51303010Y-83856062D01*
X50726866Y-82557874D01*
X50550186Y-82054808D01*
X50371696Y-81480891D01*
X50235127Y-80964830D01*
X50135313Y-80468347D01*
X50067092Y-79953162D01*
X50025298Y-79380996D01*
X50004770Y-78713570D01*
X50000231Y-77978000D01*
X50007980Y-77169944D01*
X50032703Y-76487889D01*
X50079880Y-75888892D01*
X50154993Y-75330013D01*
X50263522Y-74768308D01*
X50410950Y-74160836D01*
X50554751Y-73633720D01*
X51079809Y-72078434D01*
X51762173Y-70568710D01*
X52592540Y-69119852D01*
X53561608Y-67747162D01*
X54660074Y-66465943D01*
X55309438Y-65812089D01*
X55701543Y-65453298D01*
X56138988Y-65079293D01*
X56588082Y-64716533D01*
X57015134Y-64391478D01*
X57386453Y-64130587D01*
X57665334Y-63961874D01*
X57796721Y-63902121D01*
X57889854Y-63908232D01*
G37*
X57889854Y-63908232D02*
X57982013Y-64005479D01*
X58110482Y-64219136D01*
X58151274Y-64291278D01*
X58463404Y-64731212D01*
X58878298Y-65159399D01*
X59337378Y-65520679D01*
X59649807Y-65702369D01*
X59856170Y-65800778D01*
X60045652Y-65883757D01*
X60234408Y-65952712D01*
X60438592Y-66009047D01*
X60674360Y-66054167D01*
X60957866Y-66089477D01*
X61305265Y-66116381D01*
X61732712Y-66136285D01*
X62256361Y-66150592D01*
X62892367Y-66160708D01*
X63656885Y-66168037D01*
X64566071Y-66173984D01*
X65108667Y-66177037D01*
X66129450Y-66183038D01*
X66995192Y-66189316D01*
X67720183Y-66196560D01*
X68318714Y-66205459D01*
X68805076Y-66216703D01*
X69193560Y-66230982D01*
X69498458Y-66248986D01*
X69734059Y-66271402D01*
X69914655Y-66298922D01*
X70054538Y-66332235D01*
X70167997Y-66372029D01*
X70269325Y-66418996D01*
X70284475Y-66426761D01*
X70736625Y-66734665D01*
X71177542Y-67168903D01*
X71573489Y-67687977D01*
X71890725Y-68250390D01*
X72017900Y-68558833D01*
X72175746Y-69003333D01*
X79100309Y-69003333D01*
X79043893Y-69363166D01*
X78939529Y-69756561D01*
X78749869Y-70223252D01*
X78500800Y-70708815D01*
X78218211Y-71158829D01*
X78135978Y-71271880D01*
X77713600Y-71733516D01*
X77184541Y-72164263D01*
X76610698Y-72517259D01*
X76303697Y-72659167D01*
X76189000Y-72703856D01*
X76075781Y-72741331D01*
X75948304Y-72772408D01*
X75790837Y-72797903D01*
X75587645Y-72818633D01*
X75322995Y-72835413D01*
X74981152Y-72849059D01*
X74546382Y-72860388D01*
X74002952Y-72870215D01*
X73335128Y-72879357D01*
X72527177Y-72888629D01*
X71712667Y-72897284D01*
X70771206Y-72907398D01*
X69983994Y-72916774D01*
X69335950Y-72926156D01*
X68811996Y-72936285D01*
X68397052Y-72947906D01*
X68076039Y-72961761D01*
X67833877Y-72978594D01*
X67655489Y-72999147D01*
X67525794Y-73024165D01*
X67429714Y-73054389D01*
X67352168Y-73090563D01*
X67310288Y-73114244D01*
X66943987Y-73413712D01*
X66716922Y-73780631D01*
X66629182Y-74185954D01*
X66680853Y-74600637D01*
X66872023Y-74995635D01*
X67202778Y-75341903D01*
X67303369Y-75414818D01*
X67589041Y-75607333D01*
X71407687Y-75610287D01*
X72438986Y-75612506D01*
X73316946Y-75618306D01*
X74057550Y-75628986D01*
X74676777Y-75645843D01*
X75190607Y-75670174D01*
X75615020Y-75703278D01*
X75965998Y-75746452D01*
X76259521Y-75800994D01*
X76511568Y-75868203D01*
X76738120Y-75949375D01*
X76955158Y-76045809D01*
X76992286Y-76063827D01*
X77619509Y-76464862D01*
X78154054Y-77007222D01*
X78595321Y-77690120D01*
X78942709Y-78512768D01*
X79000745Y-78693597D01*
X79047860Y-78906415D01*
X79042710Y-79037213D01*
X79027375Y-79053248D01*
X78933196Y-79057247D01*
X78682039Y-79061535D01*
X78286257Y-79066033D01*
X77758205Y-79070664D01*
X77110237Y-79075351D01*
X76354707Y-79080017D01*
X75503969Y-79084583D01*
X74570379Y-79088973D01*
X73566289Y-79093108D01*
X72504054Y-79096913D01*
X71625694Y-79099651D01*
X64299721Y-79121000D01*
X63879468Y-79337293D01*
X63444001Y-79647503D01*
X63134996Y-80047709D01*
X62957884Y-80509474D01*
X62918098Y-81004363D01*
X63021070Y-81503942D01*
X63272231Y-81979775D01*
X63354328Y-82086269D01*
X63442679Y-82196544D01*
X63521632Y-82293157D01*
X63602367Y-82377012D01*
X63696063Y-82449015D01*
X63813901Y-82510069D01*
X63967060Y-82561079D01*
X64166720Y-82602950D01*
X64424062Y-82636585D01*
X64750265Y-82662891D01*
X65156509Y-82682770D01*
X65653974Y-82697128D01*
X66253839Y-82706869D01*
X66967286Y-82712898D01*
X67805494Y-82716119D01*
X68779642Y-82717436D01*
X69900911Y-82717755D01*
X71162333Y-82717973D01*
X72483886Y-82718719D01*
X73648445Y-82720416D01*
X74668348Y-82723696D01*
X75555934Y-82729194D01*
X76323542Y-82737543D01*
X76983509Y-82749377D01*
X77548176Y-82765329D01*
X78029880Y-82786034D01*
X78440960Y-82812125D01*
X78793754Y-82844235D01*
X79100602Y-82883000D01*
X79373842Y-82929051D01*
X79625813Y-82983023D01*
X79868853Y-83045551D01*
X80115300Y-83117266D01*
X80349018Y-83189813D01*
X81494214Y-83638134D01*
X82568705Y-84232475D01*
X83557912Y-84959321D01*
X84447252Y-85805160D01*
X85222144Y-86756477D01*
X85868007Y-87799759D01*
X86279925Y-88686340D01*
X86519684Y-89327822D01*
X86693105Y-89907628D01*
X86811423Y-90481669D01*
X86885873Y-91105857D01*
X86927690Y-91836106D01*
X86930783Y-91925398D01*
X86927734Y-92999070D01*
X86837654Y-93965289D01*
X86651730Y-94866790D01*
X86361146Y-95746306D01*
X85957087Y-96646571D01*
X85956873Y-96647000D01*
X85576671Y-97335965D01*
X85148798Y-97965674D01*
X84634459Y-98589773D01*
X84262615Y-98989662D01*
X83493508Y-99701385D01*
X82642647Y-100336053D01*
X81749500Y-100868240D01*
X80853538Y-101272519D01*
X80560333Y-101374700D01*
X80335224Y-101447947D01*
X80137027Y-101512427D01*
X79953998Y-101568756D01*
X79774391Y-101617549D01*
X79586458Y-101659421D01*
X79378456Y-101694989D01*
X79138637Y-101724867D01*
X78855255Y-101749670D01*
X78516566Y-101770015D01*
X78110822Y-101786516D01*
X77626278Y-101799789D01*
X77051188Y-101810449D01*
X76373806Y-101819112D01*
X75582386Y-101826393D01*
X74665182Y-101832907D01*
X73610449Y-101839269D01*
X72406440Y-101846096D01*
X71458667Y-101851538D01*
X70117301Y-101859101D01*
X68934731Y-101865679D01*
X67900432Y-101872086D01*
X67003874Y-101879134D01*
X66234533Y-101887636D01*
X65581879Y-101898406D01*
X65035386Y-101912256D01*
X64584528Y-101930000D01*
X64218776Y-101952450D01*
X63927605Y-101980420D01*
X63700485Y-102014723D01*
X63526892Y-102056172D01*
X63396297Y-102105579D01*
X63298173Y-102163759D01*
X63221994Y-102231523D01*
X63157231Y-102309686D01*
X63093359Y-102399059D01*
X63019850Y-102500457D01*
X63017543Y-102503486D01*
X62884947Y-102701439D01*
X62812987Y-102896070D01*
X62784187Y-103152230D01*
X62780333Y-103383687D01*
X62804870Y-103781030D01*
X62896267Y-104062627D01*
X63081208Y-104277228D01*
X63372800Y-104466168D01*
X63429648Y-104490658D01*
X63512605Y-104512355D01*
X63632283Y-104531515D01*
X63799291Y-104548394D01*
X64024239Y-104563248D01*
X64317738Y-104576334D01*
X64690397Y-104587909D01*
X65152827Y-104598229D01*
X65715638Y-104607551D01*
X66389439Y-104616131D01*
X67184841Y-104624225D01*
X68112454Y-104632091D01*
X69182889Y-104639983D01*
X70406754Y-104648160D01*
X71077667Y-104652424D01*
X72403262Y-104660522D01*
X73571148Y-104667710D01*
X74592940Y-104674844D01*
X75480252Y-104682777D01*
X76244699Y-104692363D01*
X76897896Y-104704458D01*
X77451457Y-104719916D01*
X77916997Y-104739591D01*
X78306132Y-104764339D01*
X78630475Y-104795013D01*
X78901642Y-104832468D01*
X79131247Y-104877558D01*
X79330906Y-104931139D01*
X79512232Y-104994065D01*
X79686842Y-105067189D01*
X79866349Y-105151368D01*
X80062368Y-105247454D01*
X80221667Y-105325176D01*
X81071049Y-105825393D01*
X81825416Y-106452327D01*
X82469575Y-107186962D01*
X82988332Y-108010282D01*
X83366493Y-108903271D01*
X83516026Y-109448380D01*
X83607461Y-110053377D01*
X83644419Y-110745148D01*
X83626889Y-111450129D01*
X83554858Y-112094760D01*
X83516524Y-112293619D01*
X83322778Y-112938836D01*
X83027446Y-113627977D01*
X82661365Y-114299427D01*
X82255369Y-114891570D01*
X82153335Y-115017514D01*
X81550483Y-115621778D01*
X80823750Y-116165119D01*
X80014729Y-116622569D01*
X79165011Y-116969163D01*
X78667001Y-117110241D01*
X78494648Y-117130672D01*
X78157387Y-117150356D01*
X77659644Y-117169194D01*
X77005841Y-117187089D01*
X76200405Y-117203942D01*
X75247759Y-117219656D01*
X74152328Y-117234133D01*
X72918537Y-117247276D01*
X72161780Y-117254076D01*
X66049227Y-117305666D01*
X65746644Y-117599027D01*
X65472593Y-117961489D01*
X65324287Y-118373810D01*
X65318794Y-118786809D01*
X65324434Y-118815584D01*
X65446302Y-119127076D01*
X65656378Y-119442060D01*
X65902651Y-119687295D01*
X65979941Y-119738696D01*
X66071660Y-119765887D01*
X66252712Y-119789731D01*
X66534050Y-119810621D01*
X66926629Y-119828949D01*
X67441400Y-119845108D01*
X68089318Y-119859490D01*
X68881336Y-119872487D01*
X69828407Y-119884491D01*
X70148379Y-119888000D01*
X74129758Y-119930333D01*
X74717603Y-120219859D01*
X75373952Y-120634572D01*
X75920624Y-121170484D01*
X76344138Y-121809438D01*
X76631016Y-122533280D01*
X76717688Y-122913819D01*
X76760877Y-123630064D01*
X76647595Y-124331441D01*
X76390005Y-124991310D01*
X76000270Y-125583033D01*
X75490555Y-126079974D01*
X75172412Y-126297914D01*
X74915694Y-126442993D01*
X74667223Y-126559366D01*
X74404652Y-126650135D01*
X74105632Y-126718399D01*
X73747814Y-126767260D01*
X73308850Y-126799816D01*
X72766390Y-126819168D01*
X72098087Y-126828416D01*
X71331818Y-126830666D01*
X70633209Y-126831157D01*
X70082450Y-126833620D01*
X69658057Y-126839545D01*
X69338547Y-126850418D01*
X69102436Y-126867730D01*
X68928242Y-126892967D01*
X68794481Y-126927617D01*
X68679671Y-126973170D01*
X68581730Y-127021166D01*
X68207526Y-127268497D01*
X67973990Y-127573486D01*
X67854885Y-127975474D01*
X67835939Y-128139488D01*
X67806078Y-128395086D01*
X67769642Y-128564688D01*
X67744016Y-128606743D01*
X67648690Y-128568348D01*
X67446482Y-128468873D01*
X67178885Y-128328832D01*
X67144820Y-128310529D01*
X66551009Y-127930456D01*
X66112674Y-127516663D01*
X65832816Y-127074883D01*
X65714438Y-126610844D01*
X65760541Y-126130279D01*
X65859235Y-125856273D01*
X66100113Y-125485529D01*
X66455519Y-125137550D01*
X66872811Y-124862070D01*
X66953318Y-124822687D01*
X67059495Y-124782479D01*
X67198826Y-124749363D01*
X67389538Y-124722254D01*
X67649856Y-124700065D01*
X67998006Y-124681710D01*
X68452214Y-124666103D01*
X69030707Y-124652156D01*
X69751710Y-124638784D01*
X70146333Y-124632368D01*
X70999055Y-124617026D01*
X71694355Y-124600087D01*
X72244141Y-124580955D01*
X72660323Y-124559032D01*
X72954808Y-124533722D01*
X73139506Y-124504429D01*
X73214623Y-124478656D01*
X73463077Y-124246608D01*
X73616430Y-123918387D01*
X73663870Y-123544688D01*
X73594582Y-123176205D01*
X73524020Y-123028264D01*
X73448911Y-122906798D01*
X73369668Y-122806082D01*
X73270624Y-122724166D01*
X73136112Y-122659098D01*
X72950466Y-122608927D01*
X72698018Y-122571703D01*
X72363102Y-122545475D01*
X71930051Y-122528292D01*
X71383197Y-122518203D01*
X70706874Y-122513257D01*
X69885415Y-122511504D01*
X69371538Y-122511196D01*
X68417802Y-122509632D01*
X67615390Y-122504613D01*
X66946298Y-122494326D01*
X66392524Y-122476956D01*
X65936066Y-122450692D01*
X65558921Y-122413719D01*
X65243088Y-122364226D01*
X64970563Y-122300399D01*
X64723344Y-122220424D01*
X64483429Y-122122489D01*
X64232816Y-122004782D01*
X64204311Y-121990789D01*
X63577521Y-121595585D01*
X63005070Y-121068151D01*
X62514406Y-120443445D01*
X62132983Y-119756422D01*
X61888251Y-119042038D01*
X61888086Y-119041333D01*
X61809333Y-118514444D01*
X61788055Y-117911452D01*
X61824103Y-117315482D01*
X61891943Y-116908868D01*
X62135190Y-116202181D01*
X62517733Y-115515245D01*
X63010495Y-114885812D01*
X63584398Y-114351637D01*
X64144201Y-113984616D01*
X64334632Y-113884755D01*
X64511837Y-113798331D01*
X64689067Y-113724372D01*
X64879574Y-113661903D01*
X65096612Y-113609950D01*
X65353432Y-113567539D01*
X65663286Y-113533696D01*
X66039427Y-113507447D01*
X66495107Y-113487819D01*
X67043578Y-113473836D01*
X67698092Y-113464525D01*
X68471902Y-113458912D01*
X69378260Y-113456023D01*
X70430418Y-113454884D01*
X71355553Y-113454584D01*
X72501859Y-113454224D01*
X73491368Y-113453161D01*
X74336614Y-113450599D01*
X75050133Y-113445740D01*
X75644459Y-113437788D01*
X76132128Y-113425946D01*
X76525675Y-113409418D01*
X76837636Y-113387407D01*
X77080545Y-113359116D01*
X77266938Y-113323748D01*
X77409350Y-113280508D01*
X77520317Y-113228598D01*
X77612373Y-113167221D01*
X77698054Y-113095581D01*
X77750736Y-113048137D01*
X78018848Y-112700852D01*
X78153232Y-112292970D01*
X78157939Y-111862331D01*
X78037022Y-111446777D01*
X77794531Y-111084149D01*
X77516203Y-110857870D01*
X77465661Y-110831286D01*
X77400164Y-110807765D01*
X77309236Y-110787043D01*
X77182400Y-110768860D01*
X77009179Y-110752952D01*
X76779097Y-110739057D01*
X76481675Y-110726914D01*
X76106438Y-110716259D01*
X75642909Y-110706831D01*
X75080610Y-110698368D01*
X74409064Y-110690607D01*
X73617795Y-110683286D01*
X72696326Y-110676143D01*
X71634179Y-110668915D01*
X70420878Y-110661341D01*
X69426667Y-110655401D01*
X68097239Y-110647463D01*
X66926074Y-110640139D01*
X65902101Y-110633132D01*
X65014253Y-110626148D01*
X64251459Y-110618891D01*
X63602651Y-110611065D01*
X63056759Y-110602377D01*
X62602715Y-110592529D01*
X62229450Y-110581228D01*
X61925895Y-110568177D01*
X61680980Y-110553081D01*
X61483636Y-110535646D01*
X61322796Y-110515575D01*
X61187388Y-110492573D01*
X61066346Y-110466345D01*
X60948598Y-110436596D01*
X60917667Y-110428384D01*
X59746397Y-110035218D01*
X58674348Y-109510857D01*
X57708721Y-108862520D01*
X56856714Y-108097424D01*
X56125529Y-107222788D01*
X55522366Y-106245831D01*
X55054424Y-105173771D01*
X54790121Y-104285267D01*
X54597673Y-103134809D01*
X54568648Y-101974633D01*
X54699127Y-100820924D01*
X54985193Y-99689863D01*
X55422926Y-98597634D01*
X56008409Y-97560421D01*
X56617984Y-96735731D01*
X57275943Y-96052378D01*
X58064323Y-95416625D01*
X58945866Y-94852456D01*
X59883315Y-94383859D01*
X60790667Y-94049387D01*
X61425667Y-93857289D01*
X77935667Y-93768333D01*
X78248899Y-93573565D01*
X78623914Y-93249988D01*
X78854754Y-92838695D01*
X78937023Y-92347558D01*
X78937081Y-92342206D01*
X78876907Y-91855860D01*
X78677269Y-91454978D01*
X78344581Y-91126876D01*
X78033650Y-90889666D01*
X69433325Y-90841925D01*
X68024239Y-90833912D01*
X66774127Y-90826291D01*
X65672630Y-90818840D01*
X64709392Y-90811340D01*
X63874053Y-90803570D01*
X63156255Y-90795309D01*
X62545641Y-90786338D01*
X62031851Y-90776435D01*
X61604528Y-90765380D01*
X61253314Y-90752952D01*
X60967851Y-90738932D01*
X60737780Y-90723097D01*
X60552742Y-90705229D01*
X60402381Y-90685107D01*
X60276338Y-90662509D01*
X60198000Y-90645328D01*
X58760505Y-90227383D01*
X57396533Y-89669003D01*
X56115839Y-88978875D01*
X54928179Y-88165687D01*
X53843310Y-87238124D01*
X52870988Y-86204874D01*
X52020970Y-85074625D01*
X51303010Y-83856062D01*
X50726866Y-82557874D01*
X50550186Y-82054808D01*
X50371696Y-81480891D01*
X50235127Y-80964830D01*
X50135313Y-80468347D01*
X50067092Y-79953162D01*
X50025298Y-79380996D01*
X50004770Y-78713570D01*
X50000231Y-77978000D01*
X50007980Y-77169944D01*
X50032703Y-76487889D01*
X50079880Y-75888892D01*
X50154993Y-75330013D01*
X50263522Y-74768308D01*
X50410950Y-74160836D01*
X50554751Y-73633720D01*
X51079809Y-72078434D01*
X51762173Y-70568710D01*
X52592540Y-69119852D01*
X53561608Y-67747162D01*
X54660074Y-66465943D01*
X55309438Y-65812089D01*
X55701543Y-65453298D01*
X56138988Y-65079293D01*
X56588082Y-64716533D01*
X57015134Y-64391478D01*
X57386453Y-64130587D01*
X57665334Y-63961874D01*
X57796721Y-63902121D01*
X57889854Y-63908232D01*
G36*
X86095413Y-64684343D02*
G01*
X86186017Y-64697412D01*
X86254954Y-64704802D01*
X86727190Y-64817632D01*
X87100269Y-65058595D01*
X87357573Y-65409841D01*
X87482482Y-65853517D01*
X87491836Y-66033367D01*
X87479017Y-66276630D01*
X87431173Y-66487986D01*
X87331355Y-66686843D01*
X87162614Y-66892613D01*
X86908003Y-67124706D01*
X86550573Y-67402531D01*
X86073374Y-67745498D01*
X85876258Y-67883587D01*
X85305722Y-68286706D01*
X84860004Y-68615569D01*
X84521119Y-68886920D01*
X84271082Y-69117503D01*
X84091908Y-69324061D01*
X83965610Y-69523337D01*
X83874205Y-69732077D01*
X83865934Y-69755126D01*
X83782837Y-70112400D01*
X83744503Y-70551481D01*
X83747502Y-71029851D01*
X83788408Y-71504992D01*
X83863790Y-71934384D01*
X83970222Y-72275509D01*
X84084568Y-72466505D01*
X84341792Y-72629174D01*
X84662390Y-72640630D01*
X85037545Y-72502831D01*
X85458437Y-72217737D01*
X85549865Y-72141021D01*
X86163189Y-71705879D01*
X86804242Y-71433307D01*
X87462952Y-71324810D01*
X88129250Y-71381894D01*
X88793065Y-71606065D01*
X88872012Y-71644232D01*
X89257358Y-71899838D01*
X89643104Y-72262886D01*
X89978458Y-72679405D01*
X90190679Y-73045408D01*
X90314935Y-73452400D01*
X90376523Y-73952156D01*
X90375352Y-74481227D01*
X90311336Y-74976167D01*
X90193898Y-75353333D01*
X89856881Y-75905249D01*
X89413941Y-76355342D01*
X88890838Y-76696845D01*
X88313331Y-76922988D01*
X87707177Y-77027003D01*
X87098137Y-77002120D01*
X86511968Y-76841571D01*
X85974429Y-76538587D01*
X85900841Y-76481452D01*
X85428268Y-76117879D01*
X85049317Y-75872304D01*
X84743681Y-75737452D01*
X84491049Y-75706047D01*
X84271115Y-75770813D01*
X84146304Y-75852884D01*
X83978026Y-76079772D01*
X83850655Y-76453327D01*
X83768467Y-76954890D01*
X83735735Y-77565805D01*
X83735333Y-77646827D01*
X83747429Y-78046486D01*
X83793929Y-78385894D01*
X83890154Y-78685832D01*
X84051421Y-78967078D01*
X84293051Y-79250412D01*
X84630363Y-79556613D01*
X85078676Y-79906460D01*
X85653309Y-80320733D01*
X85764097Y-80398665D01*
X86204344Y-80713816D01*
X86602644Y-81010640D01*
X86935619Y-81270775D01*
X87179891Y-81475858D01*
X87312082Y-81607527D01*
X87322707Y-81622912D01*
X87491325Y-82060054D01*
X87491889Y-82507904D01*
X87359626Y-82887983D01*
X87078993Y-83288890D01*
X86722148Y-83539893D01*
X86280972Y-83646125D01*
X86153567Y-83650666D01*
X85977610Y-83644972D01*
X85821048Y-83618101D01*
X85654239Y-83555374D01*
X85447540Y-83442109D01*
X85171309Y-83263628D01*
X84795905Y-83005248D01*
X84663254Y-82912576D01*
X84178813Y-82573532D01*
X83621856Y-82183582D01*
X83058518Y-81789037D01*
X82554929Y-81436207D01*
X82517168Y-81409743D01*
X81426002Y-80645000D01*
X81395152Y-80026711D01*
X81287983Y-79071574D01*
X81070060Y-78096461D01*
X80758595Y-77167959D01*
X80515318Y-76623333D01*
X80193991Y-76068139D01*
X79803817Y-75531242D01*
X79374761Y-75045729D01*
X78936790Y-74644686D01*
X78519868Y-74361197D01*
X78422500Y-74312598D01*
X78271792Y-74225318D01*
X78257431Y-74141766D01*
X78386495Y-74032334D01*
X78507167Y-73958579D01*
X78845689Y-73716425D01*
X79229681Y-73372222D01*
X79617012Y-72968834D01*
X79965556Y-72549127D01*
X80155723Y-72281182D01*
X80660655Y-71362400D01*
X81049619Y-70345542D01*
X81311178Y-69265747D01*
X81419811Y-68396763D01*
X81473658Y-67663194D01*
X82860944Y-66703430D01*
X83578233Y-66206620D01*
X84169357Y-65796910D01*
X84648153Y-65466150D01*
X85028460Y-65206190D01*
X85324119Y-65008881D01*
X85548967Y-64866075D01*
X85716843Y-64769620D01*
X85841587Y-64711370D01*
X85937037Y-64683173D01*
X86017033Y-64676880D01*
X86095413Y-64684343D01*
G37*
X86095413Y-64684343D02*
X86186017Y-64697412D01*
X86254954Y-64704802D01*
X86727190Y-64817632D01*
X87100269Y-65058595D01*
X87357573Y-65409841D01*
X87482482Y-65853517D01*
X87491836Y-66033367D01*
X87479017Y-66276630D01*
X87431173Y-66487986D01*
X87331355Y-66686843D01*
X87162614Y-66892613D01*
X86908003Y-67124706D01*
X86550573Y-67402531D01*
X86073374Y-67745498D01*
X85876258Y-67883587D01*
X85305722Y-68286706D01*
X84860004Y-68615569D01*
X84521119Y-68886920D01*
X84271082Y-69117503D01*
X84091908Y-69324061D01*
X83965610Y-69523337D01*
X83874205Y-69732077D01*
X83865934Y-69755126D01*
X83782837Y-70112400D01*
X83744503Y-70551481D01*
X83747502Y-71029851D01*
X83788408Y-71504992D01*
X83863790Y-71934384D01*
X83970222Y-72275509D01*
X84084568Y-72466505D01*
X84341792Y-72629174D01*
X84662390Y-72640630D01*
X85037545Y-72502831D01*
X85458437Y-72217737D01*
X85549865Y-72141021D01*
X86163189Y-71705879D01*
X86804242Y-71433307D01*
X87462952Y-71324810D01*
X88129250Y-71381894D01*
X88793065Y-71606065D01*
X88872012Y-71644232D01*
X89257358Y-71899838D01*
X89643104Y-72262886D01*
X89978458Y-72679405D01*
X90190679Y-73045408D01*
X90314935Y-73452400D01*
X90376523Y-73952156D01*
X90375352Y-74481227D01*
X90311336Y-74976167D01*
X90193898Y-75353333D01*
X89856881Y-75905249D01*
X89413941Y-76355342D01*
X88890838Y-76696845D01*
X88313331Y-76922988D01*
X87707177Y-77027003D01*
X87098137Y-77002120D01*
X86511968Y-76841571D01*
X85974429Y-76538587D01*
X85900841Y-76481452D01*
X85428268Y-76117879D01*
X85049317Y-75872304D01*
X84743681Y-75737452D01*
X84491049Y-75706047D01*
X84271115Y-75770813D01*
X84146304Y-75852884D01*
X83978026Y-76079772D01*
X83850655Y-76453327D01*
X83768467Y-76954890D01*
X83735735Y-77565805D01*
X83735333Y-77646827D01*
X83747429Y-78046486D01*
X83793929Y-78385894D01*
X83890154Y-78685832D01*
X84051421Y-78967078D01*
X84293051Y-79250412D01*
X84630363Y-79556613D01*
X85078676Y-79906460D01*
X85653309Y-80320733D01*
X85764097Y-80398665D01*
X86204344Y-80713816D01*
X86602644Y-81010640D01*
X86935619Y-81270775D01*
X87179891Y-81475858D01*
X87312082Y-81607527D01*
X87322707Y-81622912D01*
X87491325Y-82060054D01*
X87491889Y-82507904D01*
X87359626Y-82887983D01*
X87078993Y-83288890D01*
X86722148Y-83539893D01*
X86280972Y-83646125D01*
X86153567Y-83650666D01*
X85977610Y-83644972D01*
X85821048Y-83618101D01*
X85654239Y-83555374D01*
X85447540Y-83442109D01*
X85171309Y-83263628D01*
X84795905Y-83005248D01*
X84663254Y-82912576D01*
X84178813Y-82573532D01*
X83621856Y-82183582D01*
X83058518Y-81789037D01*
X82554929Y-81436207D01*
X82517168Y-81409743D01*
X81426002Y-80645000D01*
X81395152Y-80026711D01*
X81287983Y-79071574D01*
X81070060Y-78096461D01*
X80758595Y-77167959D01*
X80515318Y-76623333D01*
X80193991Y-76068139D01*
X79803817Y-75531242D01*
X79374761Y-75045729D01*
X78936790Y-74644686D01*
X78519868Y-74361197D01*
X78422500Y-74312598D01*
X78271792Y-74225318D01*
X78257431Y-74141766D01*
X78386495Y-74032334D01*
X78507167Y-73958579D01*
X78845689Y-73716425D01*
X79229681Y-73372222D01*
X79617012Y-72968834D01*
X79965556Y-72549127D01*
X80155723Y-72281182D01*
X80660655Y-71362400D01*
X81049619Y-70345542D01*
X81311178Y-69265747D01*
X81419811Y-68396763D01*
X81473658Y-67663194D01*
X82860944Y-66703430D01*
X83578233Y-66206620D01*
X84169357Y-65796910D01*
X84648153Y-65466150D01*
X85028460Y-65206190D01*
X85324119Y-65008881D01*
X85548967Y-64866075D01*
X85716843Y-64769620D01*
X85841587Y-64711370D01*
X85937037Y-64683173D01*
X86017033Y-64676880D01*
X86095413Y-64684343D01*
G36*
X79036333Y-61804983D02*
G01*
X79046740Y-62546607D01*
X79047025Y-62893576D01*
X79038824Y-63180744D01*
X79023775Y-63362201D01*
X79016515Y-63394115D01*
X78977656Y-63412287D01*
X78870270Y-63428397D01*
X78685999Y-63442554D01*
X78416481Y-63454862D01*
X78053358Y-63465428D01*
X77588270Y-63474358D01*
X77012856Y-63481759D01*
X76318758Y-63487737D01*
X75497616Y-63492398D01*
X74541070Y-63495848D01*
X73440761Y-63498194D01*
X72188328Y-63499542D01*
X70775413Y-63499998D01*
X70687608Y-63500000D01*
X62399333Y-63500000D01*
X62399333Y-61764333D01*
X79036333Y-61804983D01*
G37*
X79036333Y-61804983D02*
X79046740Y-62546607D01*
X79047025Y-62893576D01*
X79038824Y-63180744D01*
X79023775Y-63362201D01*
X79016515Y-63394115D01*
X78977656Y-63412287D01*
X78870270Y-63428397D01*
X78685999Y-63442554D01*
X78416481Y-63454862D01*
X78053358Y-63465428D01*
X77588270Y-63474358D01*
X77012856Y-63481759D01*
X76318758Y-63487737D01*
X75497616Y-63492398D01*
X74541070Y-63495848D01*
X73440761Y-63498194D01*
X72188328Y-63499542D01*
X70775413Y-63499998D01*
X70687608Y-63500000D01*
X62399333Y-63500000D01*
X62399333Y-61764333D01*
X79036333Y-61804983D01*
G36*
X70722549Y-58948752D02*
G01*
X79032845Y-58970333D01*
X79062576Y-59626500D01*
X79092307Y-60282666D01*
X70724653Y-60282865D01*
X62357000Y-60283064D01*
X62384627Y-59605118D01*
X62412253Y-58927172D01*
X70722549Y-58948752D01*
G37*
X70722549Y-58948752D02*
X79032845Y-58970333D01*
X79062576Y-59626500D01*
X79092307Y-60282666D01*
X70724653Y-60282865D01*
X62357000Y-60283064D01*
X62384627Y-59605118D01*
X62412253Y-58927172D01*
X70722549Y-58948752D01*
G36*
X63898569Y-55403466D02*
G01*
X64349893Y-55562500D01*
X64681952Y-55811858D01*
X64938969Y-56161729D01*
X65085751Y-56556167D01*
X65106807Y-56765773D01*
X65037423Y-57138593D01*
X64859868Y-57518616D01*
X64612567Y-57831573D01*
X64512458Y-57914522D01*
X64157879Y-58079640D01*
X63737826Y-58147038D01*
X63324435Y-58110935D01*
X63091875Y-58028411D01*
X62727948Y-57758469D01*
X62483595Y-57403147D01*
X62359610Y-56996512D01*
X62356791Y-56572627D01*
X62475931Y-56165557D01*
X62717827Y-55809368D01*
X63034333Y-55564241D01*
X63464129Y-55402489D01*
X63898569Y-55403466D01*
G37*
X63898569Y-55403466D02*
X64349893Y-55562500D01*
X64681952Y-55811858D01*
X64938969Y-56161729D01*
X65085751Y-56556167D01*
X65106807Y-56765773D01*
X65037423Y-57138593D01*
X64859868Y-57518616D01*
X64612567Y-57831573D01*
X64512458Y-57914522D01*
X64157879Y-58079640D01*
X63737826Y-58147038D01*
X63324435Y-58110935D01*
X63091875Y-58028411D01*
X62727948Y-57758469D01*
X62483595Y-57403147D01*
X62359610Y-56996512D01*
X62356791Y-56572627D01*
X62475931Y-56165557D01*
X62717827Y-55809368D01*
X63034333Y-55564241D01*
X63464129Y-55402489D01*
X63898569Y-55403466D01*
G36*
X67558377Y-55428156D02*
G01*
X67927673Y-55589225D01*
X68241597Y-55844948D01*
X68474163Y-56178435D01*
X68599386Y-56572796D01*
X68591279Y-57011139D01*
X68570328Y-57106715D01*
X68382789Y-57533281D01*
X68081076Y-57863364D01*
X67697657Y-58080070D01*
X67264997Y-58166507D01*
X66815561Y-58105780D01*
X66717377Y-58070880D01*
X66329273Y-57829936D01*
X66048157Y-57474474D01*
X65894043Y-57035272D01*
X65870667Y-56768999D01*
X65936521Y-56304454D01*
X66144260Y-55918813D01*
X66378118Y-55681787D01*
X66757614Y-55457547D01*
X67159696Y-55378633D01*
X67558377Y-55428156D01*
G37*
X67558377Y-55428156D02*
X67927673Y-55589225D01*
X68241597Y-55844948D01*
X68474163Y-56178435D01*
X68599386Y-56572796D01*
X68591279Y-57011139D01*
X68570328Y-57106715D01*
X68382789Y-57533281D01*
X68081076Y-57863364D01*
X67697657Y-58080070D01*
X67264997Y-58166507D01*
X66815561Y-58105780D01*
X66717377Y-58070880D01*
X66329273Y-57829936D01*
X66048157Y-57474474D01*
X65894043Y-57035272D01*
X65870667Y-56768999D01*
X65936521Y-56304454D01*
X66144260Y-55918813D01*
X66378118Y-55681787D01*
X66757614Y-55457547D01*
X67159696Y-55378633D01*
X67558377Y-55428156D01*
G36*
X70883597Y-55396026D02*
G01*
X71331004Y-55507702D01*
X71686227Y-55737054D01*
X71942064Y-56055294D01*
X72091313Y-56433635D01*
X72126774Y-56843289D01*
X72041245Y-57255468D01*
X71827524Y-57641384D01*
X71520446Y-57941844D01*
X71223966Y-58078883D01*
X70844280Y-58141935D01*
X70452525Y-58126677D01*
X70119836Y-58028786D01*
X70116635Y-58027165D01*
X69804999Y-57785591D01*
X69551554Y-57434071D01*
X69394166Y-57030767D01*
X69367459Y-56876382D01*
X69398760Y-56438552D01*
X69571415Y-56045011D01*
X69858393Y-55722150D01*
X70232664Y-55496363D01*
X70667195Y-55394043D01*
X70883597Y-55396026D01*
G37*
X70883597Y-55396026D02*
X71331004Y-55507702D01*
X71686227Y-55737054D01*
X71942064Y-56055294D01*
X72091313Y-56433635D01*
X72126774Y-56843289D01*
X72041245Y-57255468D01*
X71827524Y-57641384D01*
X71520446Y-57941844D01*
X71223966Y-58078883D01*
X70844280Y-58141935D01*
X70452525Y-58126677D01*
X70119836Y-58028786D01*
X70116635Y-58027165D01*
X69804999Y-57785591D01*
X69551554Y-57434071D01*
X69394166Y-57030767D01*
X69367459Y-56876382D01*
X69398760Y-56438552D01*
X69571415Y-56045011D01*
X69858393Y-55722150D01*
X70232664Y-55496363D01*
X70667195Y-55394043D01*
X70883597Y-55396026D01*
G36*
X74714969Y-55464215D02*
G01*
X75108497Y-55662218D01*
X75420659Y-55981554D01*
X75452950Y-56031189D01*
X75607707Y-56426258D01*
X75643450Y-56873580D01*
X75559261Y-57304903D01*
X75472591Y-57492065D01*
X75187901Y-57822198D01*
X74805569Y-58046399D01*
X74370125Y-58150721D01*
X73926096Y-58121220D01*
X73702333Y-58046480D01*
X73326240Y-57796316D01*
X73065646Y-57453256D01*
X72924344Y-57051666D01*
X72906129Y-56625912D01*
X73014794Y-56210361D01*
X73254132Y-55839378D01*
X73439890Y-55669033D01*
X73841296Y-55460539D01*
X74279446Y-55394628D01*
X74714969Y-55464215D01*
G37*
X74714969Y-55464215D02*
X75108497Y-55662218D01*
X75420659Y-55981554D01*
X75452950Y-56031189D01*
X75607707Y-56426258D01*
X75643450Y-56873580D01*
X75559261Y-57304903D01*
X75472591Y-57492065D01*
X75187901Y-57822198D01*
X74805569Y-58046399D01*
X74370125Y-58150721D01*
X73926096Y-58121220D01*
X73702333Y-58046480D01*
X73326240Y-57796316D01*
X73065646Y-57453256D01*
X72924344Y-57051666D01*
X72906129Y-56625912D01*
X73014794Y-56210361D01*
X73254132Y-55839378D01*
X73439890Y-55669033D01*
X73841296Y-55460539D01*
X74279446Y-55394628D01*
X74714969Y-55464215D01*
G36*
X78191603Y-55428934D02*
G01*
X78582279Y-55623981D01*
X78655882Y-55681787D01*
X78971223Y-56045687D01*
X79141078Y-56462840D01*
X79166859Y-56902268D01*
X79049977Y-57332994D01*
X78791844Y-57724040D01*
X78553011Y-57939291D01*
X78217822Y-58094802D01*
X77811012Y-58148880D01*
X77397867Y-58099744D01*
X77096485Y-57979044D01*
X76757714Y-57687530D01*
X76528594Y-57294640D01*
X76433918Y-56845533D01*
X76432920Y-56770341D01*
X76511931Y-56318481D01*
X76715094Y-55939080D01*
X77013526Y-55646281D01*
X77378343Y-55454228D01*
X77780663Y-55377065D01*
X78191603Y-55428934D01*
G37*
X78191603Y-55428934D02*
X78582279Y-55623981D01*
X78655882Y-55681787D01*
X78971223Y-56045687D01*
X79141078Y-56462840D01*
X79166859Y-56902268D01*
X79049977Y-57332994D01*
X78791844Y-57724040D01*
X78553011Y-57939291D01*
X78217822Y-58094802D01*
X77811012Y-58148880D01*
X77397867Y-58099744D01*
X77096485Y-57979044D01*
X76757714Y-57687530D01*
X76528594Y-57294640D01*
X76433918Y-56845533D01*
X76432920Y-56770341D01*
X76511931Y-56318481D01*
X76715094Y-55939080D01*
X77013526Y-55646281D01*
X77378343Y-55454228D01*
X77780663Y-55377065D01*
X78191603Y-55428934D01*
D12*
%TO.C,D65*%
X80297000Y-34246000D02*
X80297000Y-33096000D01*
X87597000Y-34246000D02*
X80297000Y-34246000D01*
X87597000Y-28746000D02*
X80297000Y-28746000D01*
%TO.C,D64*%
X34577000Y-34246000D02*
X34577000Y-33096000D01*
X41877000Y-34246000D02*
X34577000Y-34246000D01*
X41877000Y-28746000D02*
X34577000Y-28746000D01*
%TO.C,D63*%
X36659000Y-79342000D02*
X35509000Y-79342000D01*
X36659000Y-72042000D02*
X36659000Y-79342000D01*
X31159000Y-72042000D02*
X31159000Y-79342000D01*
%TO.C,D62*%
X36659000Y-107409000D02*
X35509000Y-107409000D01*
X36659000Y-100109000D02*
X36659000Y-107409000D01*
X31159000Y-100109000D02*
X31159000Y-107409000D01*
%TO.C,D61*%
X54450000Y-126155000D02*
X54450000Y-127305000D01*
X47150000Y-126155000D02*
X54450000Y-126155000D01*
X47150000Y-131655000D02*
X54450000Y-131655000D01*
%TO.C,D60*%
X90010000Y-126155000D02*
X90010000Y-127305000D01*
X82710000Y-126155000D02*
X90010000Y-126155000D01*
X82710000Y-131655000D02*
X90010000Y-131655000D01*
%TO.C,D59*%
X118585000Y-126155000D02*
X118585000Y-127305000D01*
X111285000Y-126155000D02*
X118585000Y-126155000D01*
X111285000Y-131655000D02*
X118585000Y-131655000D01*
%TO.C,D58*%
X154399000Y-126155000D02*
X154399000Y-127305000D01*
X147099000Y-126155000D02*
X154399000Y-126155000D01*
X147099000Y-131655000D02*
X154399000Y-131655000D01*
%TO.C,D57*%
X190340000Y-126155000D02*
X190340000Y-127305000D01*
X183040000Y-126155000D02*
X190340000Y-126155000D01*
X183040000Y-131655000D02*
X190340000Y-131655000D01*
%TO.C,D56*%
X218915000Y-126155000D02*
X218915000Y-127305000D01*
X211615000Y-126155000D02*
X218915000Y-126155000D01*
X211615000Y-131655000D02*
X218915000Y-131655000D01*
%TO.C,D55*%
X254475000Y-126155000D02*
X254475000Y-127305000D01*
X247175000Y-126155000D02*
X254475000Y-126155000D01*
X247175000Y-131655000D02*
X254475000Y-131655000D01*
%TO.C,D54*%
X264585000Y-88806000D02*
X265735000Y-88806000D01*
X264585000Y-96106000D02*
X264585000Y-88806000D01*
X270085000Y-96106000D02*
X270085000Y-88806000D01*
%TO.C,D53*%
X263188000Y-56675000D02*
X264338000Y-56675000D01*
X263188000Y-63975000D02*
X263188000Y-56675000D01*
X268688000Y-63975000D02*
X268688000Y-56675000D01*
%TO.C,D52*%
X259875000Y-34246000D02*
X259875000Y-33096000D01*
X267175000Y-34246000D02*
X259875000Y-34246000D01*
X267175000Y-28746000D02*
X259875000Y-28746000D01*
%TO.C,D51*%
X214155000Y-34246000D02*
X214155000Y-33096000D01*
X221455000Y-34246000D02*
X214155000Y-34246000D01*
X221455000Y-28746000D02*
X214155000Y-28746000D01*
%TO.C,D50*%
X149131000Y-42120000D02*
X149131000Y-40970000D01*
X156431000Y-42120000D02*
X149131000Y-42120000D01*
X156431000Y-36620000D02*
X149131000Y-36620000D01*
%TO.C,D65*%
D10*
X85161285Y-35504380D02*
X85161285Y-34504380D01*
X84923190Y-34504380D01*
X84780333Y-34552000D01*
X84685095Y-34647238D01*
X84637476Y-34742476D01*
X84589857Y-34932952D01*
X84589857Y-35075809D01*
X84637476Y-35266285D01*
X84685095Y-35361523D01*
X84780333Y-35456761D01*
X84923190Y-35504380D01*
X85161285Y-35504380D01*
X83732714Y-34504380D02*
X83923190Y-34504380D01*
X84018428Y-34552000D01*
X84066047Y-34599619D01*
X84161285Y-34742476D01*
X84208904Y-34932952D01*
X84208904Y-35313904D01*
X84161285Y-35409142D01*
X84113666Y-35456761D01*
X84018428Y-35504380D01*
X83827952Y-35504380D01*
X83732714Y-35456761D01*
X83685095Y-35409142D01*
X83637476Y-35313904D01*
X83637476Y-35075809D01*
X83685095Y-34980571D01*
X83732714Y-34932952D01*
X83827952Y-34885333D01*
X84018428Y-34885333D01*
X84113666Y-34932952D01*
X84161285Y-34980571D01*
X84208904Y-35075809D01*
X82732714Y-34504380D02*
X83208904Y-34504380D01*
X83256523Y-34980571D01*
X83208904Y-34932952D01*
X83113666Y-34885333D01*
X82875571Y-34885333D01*
X82780333Y-34932952D01*
X82732714Y-34980571D01*
X82685095Y-35075809D01*
X82685095Y-35313904D01*
X82732714Y-35409142D01*
X82780333Y-35456761D01*
X82875571Y-35504380D01*
X83113666Y-35504380D01*
X83208904Y-35456761D01*
X83256523Y-35409142D01*
X87811285Y-30348380D02*
X88382714Y-30348380D01*
X88097000Y-30348380D02*
X88097000Y-29348380D01*
X88192238Y-29491238D01*
X88287476Y-29586476D01*
X88382714Y-29634095D01*
%TO.C,D64*%
X39441285Y-35631380D02*
X39441285Y-34631380D01*
X39203190Y-34631380D01*
X39060333Y-34679000D01*
X38965095Y-34774238D01*
X38917476Y-34869476D01*
X38869857Y-35059952D01*
X38869857Y-35202809D01*
X38917476Y-35393285D01*
X38965095Y-35488523D01*
X39060333Y-35583761D01*
X39203190Y-35631380D01*
X39441285Y-35631380D01*
X38012714Y-34631380D02*
X38203190Y-34631380D01*
X38298428Y-34679000D01*
X38346047Y-34726619D01*
X38441285Y-34869476D01*
X38488904Y-35059952D01*
X38488904Y-35440904D01*
X38441285Y-35536142D01*
X38393666Y-35583761D01*
X38298428Y-35631380D01*
X38107952Y-35631380D01*
X38012714Y-35583761D01*
X37965095Y-35536142D01*
X37917476Y-35440904D01*
X37917476Y-35202809D01*
X37965095Y-35107571D01*
X38012714Y-35059952D01*
X38107952Y-35012333D01*
X38298428Y-35012333D01*
X38393666Y-35059952D01*
X38441285Y-35107571D01*
X38488904Y-35202809D01*
X37060333Y-34964714D02*
X37060333Y-35631380D01*
X37298428Y-34583761D02*
X37536523Y-35298047D01*
X36917476Y-35298047D01*
X42091285Y-30348380D02*
X42662714Y-30348380D01*
X42377000Y-30348380D02*
X42377000Y-29348380D01*
X42472238Y-29491238D01*
X42567476Y-29586476D01*
X42662714Y-29634095D01*
%TO.C,D63*%
X37917380Y-74477714D02*
X36917380Y-74477714D01*
X36917380Y-74715809D01*
X36965000Y-74858666D01*
X37060238Y-74953904D01*
X37155476Y-75001523D01*
X37345952Y-75049142D01*
X37488809Y-75049142D01*
X37679285Y-75001523D01*
X37774523Y-74953904D01*
X37869761Y-74858666D01*
X37917380Y-74715809D01*
X37917380Y-74477714D01*
X36917380Y-75906285D02*
X36917380Y-75715809D01*
X36965000Y-75620571D01*
X37012619Y-75572952D01*
X37155476Y-75477714D01*
X37345952Y-75430095D01*
X37726904Y-75430095D01*
X37822142Y-75477714D01*
X37869761Y-75525333D01*
X37917380Y-75620571D01*
X37917380Y-75811047D01*
X37869761Y-75906285D01*
X37822142Y-75953904D01*
X37726904Y-76001523D01*
X37488809Y-76001523D01*
X37393571Y-75953904D01*
X37345952Y-75906285D01*
X37298333Y-75811047D01*
X37298333Y-75620571D01*
X37345952Y-75525333D01*
X37393571Y-75477714D01*
X37488809Y-75430095D01*
X36917380Y-76334857D02*
X36917380Y-76953904D01*
X37298333Y-76620571D01*
X37298333Y-76763428D01*
X37345952Y-76858666D01*
X37393571Y-76906285D01*
X37488809Y-76953904D01*
X37726904Y-76953904D01*
X37822142Y-76906285D01*
X37869761Y-76858666D01*
X37917380Y-76763428D01*
X37917380Y-76477714D01*
X37869761Y-76382476D01*
X37822142Y-76334857D01*
X32761380Y-71827714D02*
X32761380Y-71256285D01*
X32761380Y-71542000D02*
X31761380Y-71542000D01*
X31904238Y-71446761D01*
X31999476Y-71351523D01*
X32047095Y-71256285D01*
%TO.C,D62*%
X37917380Y-102544714D02*
X36917380Y-102544714D01*
X36917380Y-102782809D01*
X36965000Y-102925666D01*
X37060238Y-103020904D01*
X37155476Y-103068523D01*
X37345952Y-103116142D01*
X37488809Y-103116142D01*
X37679285Y-103068523D01*
X37774523Y-103020904D01*
X37869761Y-102925666D01*
X37917380Y-102782809D01*
X37917380Y-102544714D01*
X36917380Y-103973285D02*
X36917380Y-103782809D01*
X36965000Y-103687571D01*
X37012619Y-103639952D01*
X37155476Y-103544714D01*
X37345952Y-103497095D01*
X37726904Y-103497095D01*
X37822142Y-103544714D01*
X37869761Y-103592333D01*
X37917380Y-103687571D01*
X37917380Y-103878047D01*
X37869761Y-103973285D01*
X37822142Y-104020904D01*
X37726904Y-104068523D01*
X37488809Y-104068523D01*
X37393571Y-104020904D01*
X37345952Y-103973285D01*
X37298333Y-103878047D01*
X37298333Y-103687571D01*
X37345952Y-103592333D01*
X37393571Y-103544714D01*
X37488809Y-103497095D01*
X37012619Y-104449476D02*
X36965000Y-104497095D01*
X36917380Y-104592333D01*
X36917380Y-104830428D01*
X36965000Y-104925666D01*
X37012619Y-104973285D01*
X37107857Y-105020904D01*
X37203095Y-105020904D01*
X37345952Y-104973285D01*
X37917380Y-104401857D01*
X37917380Y-105020904D01*
X32761380Y-99894714D02*
X32761380Y-99323285D01*
X32761380Y-99609000D02*
X31761380Y-99609000D01*
X31904238Y-99513761D01*
X31999476Y-99418523D01*
X32047095Y-99323285D01*
%TO.C,D61*%
X52014285Y-125801380D02*
X52014285Y-124801380D01*
X51776190Y-124801380D01*
X51633333Y-124849000D01*
X51538095Y-124944238D01*
X51490476Y-125039476D01*
X51442857Y-125229952D01*
X51442857Y-125372809D01*
X51490476Y-125563285D01*
X51538095Y-125658523D01*
X51633333Y-125753761D01*
X51776190Y-125801380D01*
X52014285Y-125801380D01*
X50585714Y-124801380D02*
X50776190Y-124801380D01*
X50871428Y-124849000D01*
X50919047Y-124896619D01*
X51014285Y-125039476D01*
X51061904Y-125229952D01*
X51061904Y-125610904D01*
X51014285Y-125706142D01*
X50966666Y-125753761D01*
X50871428Y-125801380D01*
X50680952Y-125801380D01*
X50585714Y-125753761D01*
X50538095Y-125706142D01*
X50490476Y-125610904D01*
X50490476Y-125372809D01*
X50538095Y-125277571D01*
X50585714Y-125229952D01*
X50680952Y-125182333D01*
X50871428Y-125182333D01*
X50966666Y-125229952D01*
X51014285Y-125277571D01*
X51061904Y-125372809D01*
X49538095Y-125801380D02*
X50109523Y-125801380D01*
X49823809Y-125801380D02*
X49823809Y-124801380D01*
X49919047Y-124944238D01*
X50014285Y-125039476D01*
X50109523Y-125087095D01*
X46364285Y-130957380D02*
X46935714Y-130957380D01*
X46650000Y-130957380D02*
X46650000Y-129957380D01*
X46745238Y-130100238D01*
X46840476Y-130195476D01*
X46935714Y-130243095D01*
%TO.C,D60*%
X87574285Y-125801380D02*
X87574285Y-124801380D01*
X87336190Y-124801380D01*
X87193333Y-124849000D01*
X87098095Y-124944238D01*
X87050476Y-125039476D01*
X87002857Y-125229952D01*
X87002857Y-125372809D01*
X87050476Y-125563285D01*
X87098095Y-125658523D01*
X87193333Y-125753761D01*
X87336190Y-125801380D01*
X87574285Y-125801380D01*
X86145714Y-124801380D02*
X86336190Y-124801380D01*
X86431428Y-124849000D01*
X86479047Y-124896619D01*
X86574285Y-125039476D01*
X86621904Y-125229952D01*
X86621904Y-125610904D01*
X86574285Y-125706142D01*
X86526666Y-125753761D01*
X86431428Y-125801380D01*
X86240952Y-125801380D01*
X86145714Y-125753761D01*
X86098095Y-125706142D01*
X86050476Y-125610904D01*
X86050476Y-125372809D01*
X86098095Y-125277571D01*
X86145714Y-125229952D01*
X86240952Y-125182333D01*
X86431428Y-125182333D01*
X86526666Y-125229952D01*
X86574285Y-125277571D01*
X86621904Y-125372809D01*
X85431428Y-124801380D02*
X85336190Y-124801380D01*
X85240952Y-124849000D01*
X85193333Y-124896619D01*
X85145714Y-124991857D01*
X85098095Y-125182333D01*
X85098095Y-125420428D01*
X85145714Y-125610904D01*
X85193333Y-125706142D01*
X85240952Y-125753761D01*
X85336190Y-125801380D01*
X85431428Y-125801380D01*
X85526666Y-125753761D01*
X85574285Y-125706142D01*
X85621904Y-125610904D01*
X85669523Y-125420428D01*
X85669523Y-125182333D01*
X85621904Y-124991857D01*
X85574285Y-124896619D01*
X85526666Y-124849000D01*
X85431428Y-124801380D01*
X81924285Y-130957380D02*
X82495714Y-130957380D01*
X82210000Y-130957380D02*
X82210000Y-129957380D01*
X82305238Y-130100238D01*
X82400476Y-130195476D01*
X82495714Y-130243095D01*
%TO.C,D59*%
X116149285Y-125801380D02*
X116149285Y-124801380D01*
X115911190Y-124801380D01*
X115768333Y-124849000D01*
X115673095Y-124944238D01*
X115625476Y-125039476D01*
X115577857Y-125229952D01*
X115577857Y-125372809D01*
X115625476Y-125563285D01*
X115673095Y-125658523D01*
X115768333Y-125753761D01*
X115911190Y-125801380D01*
X116149285Y-125801380D01*
X114673095Y-124801380D02*
X115149285Y-124801380D01*
X115196904Y-125277571D01*
X115149285Y-125229952D01*
X115054047Y-125182333D01*
X114815952Y-125182333D01*
X114720714Y-125229952D01*
X114673095Y-125277571D01*
X114625476Y-125372809D01*
X114625476Y-125610904D01*
X114673095Y-125706142D01*
X114720714Y-125753761D01*
X114815952Y-125801380D01*
X115054047Y-125801380D01*
X115149285Y-125753761D01*
X115196904Y-125706142D01*
X114149285Y-125801380D02*
X113958809Y-125801380D01*
X113863571Y-125753761D01*
X113815952Y-125706142D01*
X113720714Y-125563285D01*
X113673095Y-125372809D01*
X113673095Y-124991857D01*
X113720714Y-124896619D01*
X113768333Y-124849000D01*
X113863571Y-124801380D01*
X114054047Y-124801380D01*
X114149285Y-124849000D01*
X114196904Y-124896619D01*
X114244523Y-124991857D01*
X114244523Y-125229952D01*
X114196904Y-125325190D01*
X114149285Y-125372809D01*
X114054047Y-125420428D01*
X113863571Y-125420428D01*
X113768333Y-125372809D01*
X113720714Y-125325190D01*
X113673095Y-125229952D01*
X110499285Y-130957380D02*
X111070714Y-130957380D01*
X110785000Y-130957380D02*
X110785000Y-129957380D01*
X110880238Y-130100238D01*
X110975476Y-130195476D01*
X111070714Y-130243095D01*
%TO.C,D58*%
X151963285Y-125801380D02*
X151963285Y-124801380D01*
X151725190Y-124801380D01*
X151582333Y-124849000D01*
X151487095Y-124944238D01*
X151439476Y-125039476D01*
X151391857Y-125229952D01*
X151391857Y-125372809D01*
X151439476Y-125563285D01*
X151487095Y-125658523D01*
X151582333Y-125753761D01*
X151725190Y-125801380D01*
X151963285Y-125801380D01*
X150487095Y-124801380D02*
X150963285Y-124801380D01*
X151010904Y-125277571D01*
X150963285Y-125229952D01*
X150868047Y-125182333D01*
X150629952Y-125182333D01*
X150534714Y-125229952D01*
X150487095Y-125277571D01*
X150439476Y-125372809D01*
X150439476Y-125610904D01*
X150487095Y-125706142D01*
X150534714Y-125753761D01*
X150629952Y-125801380D01*
X150868047Y-125801380D01*
X150963285Y-125753761D01*
X151010904Y-125706142D01*
X149868047Y-125229952D02*
X149963285Y-125182333D01*
X150010904Y-125134714D01*
X150058523Y-125039476D01*
X150058523Y-124991857D01*
X150010904Y-124896619D01*
X149963285Y-124849000D01*
X149868047Y-124801380D01*
X149677571Y-124801380D01*
X149582333Y-124849000D01*
X149534714Y-124896619D01*
X149487095Y-124991857D01*
X149487095Y-125039476D01*
X149534714Y-125134714D01*
X149582333Y-125182333D01*
X149677571Y-125229952D01*
X149868047Y-125229952D01*
X149963285Y-125277571D01*
X150010904Y-125325190D01*
X150058523Y-125420428D01*
X150058523Y-125610904D01*
X150010904Y-125706142D01*
X149963285Y-125753761D01*
X149868047Y-125801380D01*
X149677571Y-125801380D01*
X149582333Y-125753761D01*
X149534714Y-125706142D01*
X149487095Y-125610904D01*
X149487095Y-125420428D01*
X149534714Y-125325190D01*
X149582333Y-125277571D01*
X149677571Y-125229952D01*
X146313285Y-130957380D02*
X146884714Y-130957380D01*
X146599000Y-130957380D02*
X146599000Y-129957380D01*
X146694238Y-130100238D01*
X146789476Y-130195476D01*
X146884714Y-130243095D01*
%TO.C,D57*%
X187904285Y-125801380D02*
X187904285Y-124801380D01*
X187666190Y-124801380D01*
X187523333Y-124849000D01*
X187428095Y-124944238D01*
X187380476Y-125039476D01*
X187332857Y-125229952D01*
X187332857Y-125372809D01*
X187380476Y-125563285D01*
X187428095Y-125658523D01*
X187523333Y-125753761D01*
X187666190Y-125801380D01*
X187904285Y-125801380D01*
X186428095Y-124801380D02*
X186904285Y-124801380D01*
X186951904Y-125277571D01*
X186904285Y-125229952D01*
X186809047Y-125182333D01*
X186570952Y-125182333D01*
X186475714Y-125229952D01*
X186428095Y-125277571D01*
X186380476Y-125372809D01*
X186380476Y-125610904D01*
X186428095Y-125706142D01*
X186475714Y-125753761D01*
X186570952Y-125801380D01*
X186809047Y-125801380D01*
X186904285Y-125753761D01*
X186951904Y-125706142D01*
X186047142Y-124801380D02*
X185380476Y-124801380D01*
X185809047Y-125801380D01*
X182254285Y-130957380D02*
X182825714Y-130957380D01*
X182540000Y-130957380D02*
X182540000Y-129957380D01*
X182635238Y-130100238D01*
X182730476Y-130195476D01*
X182825714Y-130243095D01*
%TO.C,D56*%
X216479285Y-125801380D02*
X216479285Y-124801380D01*
X216241190Y-124801380D01*
X216098333Y-124849000D01*
X216003095Y-124944238D01*
X215955476Y-125039476D01*
X215907857Y-125229952D01*
X215907857Y-125372809D01*
X215955476Y-125563285D01*
X216003095Y-125658523D01*
X216098333Y-125753761D01*
X216241190Y-125801380D01*
X216479285Y-125801380D01*
X215003095Y-124801380D02*
X215479285Y-124801380D01*
X215526904Y-125277571D01*
X215479285Y-125229952D01*
X215384047Y-125182333D01*
X215145952Y-125182333D01*
X215050714Y-125229952D01*
X215003095Y-125277571D01*
X214955476Y-125372809D01*
X214955476Y-125610904D01*
X215003095Y-125706142D01*
X215050714Y-125753761D01*
X215145952Y-125801380D01*
X215384047Y-125801380D01*
X215479285Y-125753761D01*
X215526904Y-125706142D01*
X214098333Y-124801380D02*
X214288809Y-124801380D01*
X214384047Y-124849000D01*
X214431666Y-124896619D01*
X214526904Y-125039476D01*
X214574523Y-125229952D01*
X214574523Y-125610904D01*
X214526904Y-125706142D01*
X214479285Y-125753761D01*
X214384047Y-125801380D01*
X214193571Y-125801380D01*
X214098333Y-125753761D01*
X214050714Y-125706142D01*
X214003095Y-125610904D01*
X214003095Y-125372809D01*
X214050714Y-125277571D01*
X214098333Y-125229952D01*
X214193571Y-125182333D01*
X214384047Y-125182333D01*
X214479285Y-125229952D01*
X214526904Y-125277571D01*
X214574523Y-125372809D01*
X210829285Y-130957380D02*
X211400714Y-130957380D01*
X211115000Y-130957380D02*
X211115000Y-129957380D01*
X211210238Y-130100238D01*
X211305476Y-130195476D01*
X211400714Y-130243095D01*
%TO.C,D55*%
X252039285Y-125801380D02*
X252039285Y-124801380D01*
X251801190Y-124801380D01*
X251658333Y-124849000D01*
X251563095Y-124944238D01*
X251515476Y-125039476D01*
X251467857Y-125229952D01*
X251467857Y-125372809D01*
X251515476Y-125563285D01*
X251563095Y-125658523D01*
X251658333Y-125753761D01*
X251801190Y-125801380D01*
X252039285Y-125801380D01*
X250563095Y-124801380D02*
X251039285Y-124801380D01*
X251086904Y-125277571D01*
X251039285Y-125229952D01*
X250944047Y-125182333D01*
X250705952Y-125182333D01*
X250610714Y-125229952D01*
X250563095Y-125277571D01*
X250515476Y-125372809D01*
X250515476Y-125610904D01*
X250563095Y-125706142D01*
X250610714Y-125753761D01*
X250705952Y-125801380D01*
X250944047Y-125801380D01*
X251039285Y-125753761D01*
X251086904Y-125706142D01*
X249610714Y-124801380D02*
X250086904Y-124801380D01*
X250134523Y-125277571D01*
X250086904Y-125229952D01*
X249991666Y-125182333D01*
X249753571Y-125182333D01*
X249658333Y-125229952D01*
X249610714Y-125277571D01*
X249563095Y-125372809D01*
X249563095Y-125610904D01*
X249610714Y-125706142D01*
X249658333Y-125753761D01*
X249753571Y-125801380D01*
X249991666Y-125801380D01*
X250086904Y-125753761D01*
X250134523Y-125706142D01*
X246389285Y-130957380D02*
X246960714Y-130957380D01*
X246675000Y-130957380D02*
X246675000Y-129957380D01*
X246770238Y-130100238D01*
X246865476Y-130195476D01*
X246960714Y-130243095D01*
%TO.C,D54*%
X264231380Y-91241714D02*
X263231380Y-91241714D01*
X263231380Y-91479809D01*
X263279000Y-91622666D01*
X263374238Y-91717904D01*
X263469476Y-91765523D01*
X263659952Y-91813142D01*
X263802809Y-91813142D01*
X263993285Y-91765523D01*
X264088523Y-91717904D01*
X264183761Y-91622666D01*
X264231380Y-91479809D01*
X264231380Y-91241714D01*
X263231380Y-92717904D02*
X263231380Y-92241714D01*
X263707571Y-92194095D01*
X263659952Y-92241714D01*
X263612333Y-92336952D01*
X263612333Y-92575047D01*
X263659952Y-92670285D01*
X263707571Y-92717904D01*
X263802809Y-92765523D01*
X264040904Y-92765523D01*
X264136142Y-92717904D01*
X264183761Y-92670285D01*
X264231380Y-92575047D01*
X264231380Y-92336952D01*
X264183761Y-92241714D01*
X264136142Y-92194095D01*
X263564714Y-93622666D02*
X264231380Y-93622666D01*
X263183761Y-93384571D02*
X263898047Y-93146476D01*
X263898047Y-93765523D01*
X269387380Y-96891714D02*
X269387380Y-96320285D01*
X269387380Y-96606000D02*
X268387380Y-96606000D01*
X268530238Y-96510761D01*
X268625476Y-96415523D01*
X268673095Y-96320285D01*
%TO.C,D53*%
X262834380Y-59110714D02*
X261834380Y-59110714D01*
X261834380Y-59348809D01*
X261882000Y-59491666D01*
X261977238Y-59586904D01*
X262072476Y-59634523D01*
X262262952Y-59682142D01*
X262405809Y-59682142D01*
X262596285Y-59634523D01*
X262691523Y-59586904D01*
X262786761Y-59491666D01*
X262834380Y-59348809D01*
X262834380Y-59110714D01*
X261834380Y-60586904D02*
X261834380Y-60110714D01*
X262310571Y-60063095D01*
X262262952Y-60110714D01*
X262215333Y-60205952D01*
X262215333Y-60444047D01*
X262262952Y-60539285D01*
X262310571Y-60586904D01*
X262405809Y-60634523D01*
X262643904Y-60634523D01*
X262739142Y-60586904D01*
X262786761Y-60539285D01*
X262834380Y-60444047D01*
X262834380Y-60205952D01*
X262786761Y-60110714D01*
X262739142Y-60063095D01*
X261834380Y-60967857D02*
X261834380Y-61586904D01*
X262215333Y-61253571D01*
X262215333Y-61396428D01*
X262262952Y-61491666D01*
X262310571Y-61539285D01*
X262405809Y-61586904D01*
X262643904Y-61586904D01*
X262739142Y-61539285D01*
X262786761Y-61491666D01*
X262834380Y-61396428D01*
X262834380Y-61110714D01*
X262786761Y-61015476D01*
X262739142Y-60967857D01*
X267990380Y-64760714D02*
X267990380Y-64189285D01*
X267990380Y-64475000D02*
X266990380Y-64475000D01*
X267133238Y-64379761D01*
X267228476Y-64284523D01*
X267276095Y-64189285D01*
%TO.C,D52*%
X264739285Y-35631380D02*
X264739285Y-34631380D01*
X264501190Y-34631380D01*
X264358333Y-34679000D01*
X264263095Y-34774238D01*
X264215476Y-34869476D01*
X264167857Y-35059952D01*
X264167857Y-35202809D01*
X264215476Y-35393285D01*
X264263095Y-35488523D01*
X264358333Y-35583761D01*
X264501190Y-35631380D01*
X264739285Y-35631380D01*
X263263095Y-34631380D02*
X263739285Y-34631380D01*
X263786904Y-35107571D01*
X263739285Y-35059952D01*
X263644047Y-35012333D01*
X263405952Y-35012333D01*
X263310714Y-35059952D01*
X263263095Y-35107571D01*
X263215476Y-35202809D01*
X263215476Y-35440904D01*
X263263095Y-35536142D01*
X263310714Y-35583761D01*
X263405952Y-35631380D01*
X263644047Y-35631380D01*
X263739285Y-35583761D01*
X263786904Y-35536142D01*
X262834523Y-34726619D02*
X262786904Y-34679000D01*
X262691666Y-34631380D01*
X262453571Y-34631380D01*
X262358333Y-34679000D01*
X262310714Y-34726619D01*
X262263095Y-34821857D01*
X262263095Y-34917095D01*
X262310714Y-35059952D01*
X262882142Y-35631380D01*
X262263095Y-35631380D01*
X267389285Y-30348380D02*
X267960714Y-30348380D01*
X267675000Y-30348380D02*
X267675000Y-29348380D01*
X267770238Y-29491238D01*
X267865476Y-29586476D01*
X267960714Y-29634095D01*
%TO.C,D51*%
X219019285Y-35631380D02*
X219019285Y-34631380D01*
X218781190Y-34631380D01*
X218638333Y-34679000D01*
X218543095Y-34774238D01*
X218495476Y-34869476D01*
X218447857Y-35059952D01*
X218447857Y-35202809D01*
X218495476Y-35393285D01*
X218543095Y-35488523D01*
X218638333Y-35583761D01*
X218781190Y-35631380D01*
X219019285Y-35631380D01*
X217543095Y-34631380D02*
X218019285Y-34631380D01*
X218066904Y-35107571D01*
X218019285Y-35059952D01*
X217924047Y-35012333D01*
X217685952Y-35012333D01*
X217590714Y-35059952D01*
X217543095Y-35107571D01*
X217495476Y-35202809D01*
X217495476Y-35440904D01*
X217543095Y-35536142D01*
X217590714Y-35583761D01*
X217685952Y-35631380D01*
X217924047Y-35631380D01*
X218019285Y-35583761D01*
X218066904Y-35536142D01*
X216543095Y-35631380D02*
X217114523Y-35631380D01*
X216828809Y-35631380D02*
X216828809Y-34631380D01*
X216924047Y-34774238D01*
X217019285Y-34869476D01*
X217114523Y-34917095D01*
X221669285Y-30348380D02*
X222240714Y-30348380D01*
X221955000Y-30348380D02*
X221955000Y-29348380D01*
X222050238Y-29491238D01*
X222145476Y-29586476D01*
X222240714Y-29634095D01*
%TO.C,D50*%
X153995285Y-43505380D02*
X153995285Y-42505380D01*
X153757190Y-42505380D01*
X153614333Y-42553000D01*
X153519095Y-42648238D01*
X153471476Y-42743476D01*
X153423857Y-42933952D01*
X153423857Y-43076809D01*
X153471476Y-43267285D01*
X153519095Y-43362523D01*
X153614333Y-43457761D01*
X153757190Y-43505380D01*
X153995285Y-43505380D01*
X152519095Y-42505380D02*
X152995285Y-42505380D01*
X153042904Y-42981571D01*
X152995285Y-42933952D01*
X152900047Y-42886333D01*
X152661952Y-42886333D01*
X152566714Y-42933952D01*
X152519095Y-42981571D01*
X152471476Y-43076809D01*
X152471476Y-43314904D01*
X152519095Y-43410142D01*
X152566714Y-43457761D01*
X152661952Y-43505380D01*
X152900047Y-43505380D01*
X152995285Y-43457761D01*
X153042904Y-43410142D01*
X151852428Y-42505380D02*
X151757190Y-42505380D01*
X151661952Y-42553000D01*
X151614333Y-42600619D01*
X151566714Y-42695857D01*
X151519095Y-42886333D01*
X151519095Y-43124428D01*
X151566714Y-43314904D01*
X151614333Y-43410142D01*
X151661952Y-43457761D01*
X151757190Y-43505380D01*
X151852428Y-43505380D01*
X151947666Y-43457761D01*
X151995285Y-43410142D01*
X152042904Y-43314904D01*
X152090523Y-43124428D01*
X152090523Y-42886333D01*
X152042904Y-42695857D01*
X151995285Y-42600619D01*
X151947666Y-42553000D01*
X151852428Y-42505380D01*
X156645285Y-38222380D02*
X157216714Y-38222380D01*
X156931000Y-38222380D02*
X156931000Y-37222380D01*
X157026238Y-37365238D01*
X157121476Y-37460476D01*
X157216714Y-37508095D01*
%TD*%
%LPC*%
D13*
%TO.C,OL1*%
X44450000Y-31496000D03*
X44450000Y-28956000D03*
X44450000Y-26416000D03*
X44450000Y-23876000D03*
%TD*%
D14*
%TO.C,M2\u002C5*%
X69850000Y-74041000D03*
%TD*%
%TO.C,M2\u002C5*%
X222250000Y-74041000D03*
%TD*%
%TO.C,M2\u002C5*%
X150749000Y-92837000D03*
%TD*%
%TO.C,M2\u002C5*%
X231775000Y-112776000D03*
%TD*%
%TO.C,M2\u002C5*%
X59690000Y-109220000D03*
%TD*%
%TO.C,M2\u002C5*%
X267462000Y-24384000D03*
%TD*%
%TO.C,M2\u002C5*%
X34163000Y-24384000D03*
%TD*%
D15*
%TO.C,D49*%
X105410000Y-24003000D03*
D16*
X113030000Y-24003000D03*
%TD*%
D15*
%TO.C,D48*%
X105410000Y-27305000D03*
D16*
X113030000Y-27305000D03*
%TD*%
D17*
%TO.C,J2*%
X94615000Y-27961000D03*
X96215000Y-27961000D03*
X93015000Y-27961000D03*
X95415000Y-26211000D03*
X93815000Y-26211000D03*
D18*
X98265000Y-22636000D03*
X90965000Y-22636000D03*
%TD*%
D19*
%TO.C,C3*%
X150295600Y-31496000D03*
X155295600Y-31496000D03*
%TD*%
%TO.C,MX11*%
G36*
G01*
X91323483Y-99809895D02*
X91322597Y-99809834D01*
G75*
G02*
X90277666Y-98610097I77403J1122334D01*
G01*
X90317666Y-98030097D01*
G75*
G02*
X91517403Y-96985166I1122334J-77403D01*
G01*
X91517403Y-96985166D01*
G75*
G02*
X92562334Y-98184903I-77403J-1122334D01*
G01*
X92522334Y-98764903D01*
G75*
G02*
X91322597Y-99809834I-1122334J77403D01*
G01*
G37*
D20*
X91440000Y-98107500D03*
G36*
G01*
X84338688Y-101484850D02*
X84338683Y-101484845D01*
G75*
G02*
X84252655Y-99896183I751317J837345D01*
G01*
X85562657Y-98436183D01*
G75*
G02*
X87151319Y-98350155I837345J-751317D01*
G01*
X87151319Y-98350155D01*
G75*
G02*
X87237347Y-99938817I-751317J-837345D01*
G01*
X85927345Y-101398817D01*
G75*
G02*
X84338683Y-101484845I-837345J751317D01*
G01*
G37*
D21*
X88900000Y-103187500D03*
D20*
X86400000Y-99187500D03*
D22*
X83820000Y-103187500D03*
X93980000Y-103187500D03*
%TD*%
%TO.C,MX8*%
G36*
G01*
X62748483Y-118859895D02*
X62747597Y-118859834D01*
G75*
G02*
X61702666Y-117660097I77403J1122334D01*
G01*
X61742666Y-117080097D01*
G75*
G02*
X62942403Y-116035166I1122334J-77403D01*
G01*
X62942403Y-116035166D01*
G75*
G02*
X63987334Y-117234903I-77403J-1122334D01*
G01*
X63947334Y-117814903D01*
G75*
G02*
X62747597Y-118859834I-1122334J77403D01*
G01*
G37*
D20*
X62865000Y-117157500D03*
G36*
G01*
X55763688Y-120534850D02*
X55763683Y-120534845D01*
G75*
G02*
X55677655Y-118946183I751317J837345D01*
G01*
X56987657Y-117486183D01*
G75*
G02*
X58576319Y-117400155I837345J-751317D01*
G01*
X58576319Y-117400155D01*
G75*
G02*
X58662347Y-118988817I-751317J-837345D01*
G01*
X57352345Y-120448817D01*
G75*
G02*
X55763683Y-120534845I-837345J751317D01*
G01*
G37*
D21*
X60325000Y-122237500D03*
D20*
X57825000Y-118237500D03*
D22*
X55245000Y-122237500D03*
X65405000Y-122237500D03*
%TD*%
%TO.C,MX5*%
G36*
G01*
X62748483Y-61709895D02*
X62747597Y-61709834D01*
G75*
G02*
X61702666Y-60510097I77403J1122334D01*
G01*
X61742666Y-59930097D01*
G75*
G02*
X62942403Y-58885166I1122334J-77403D01*
G01*
X62942403Y-58885166D01*
G75*
G02*
X63987334Y-60084903I-77403J-1122334D01*
G01*
X63947334Y-60664903D01*
G75*
G02*
X62747597Y-61709834I-1122334J77403D01*
G01*
G37*
D20*
X62865000Y-60007500D03*
G36*
G01*
X55763688Y-63384850D02*
X55763683Y-63384845D01*
G75*
G02*
X55677655Y-61796183I751317J837345D01*
G01*
X56987657Y-60336183D01*
G75*
G02*
X58576319Y-60250155I837345J-751317D01*
G01*
X58576319Y-60250155D01*
G75*
G02*
X58662347Y-61838817I-751317J-837345D01*
G01*
X57352345Y-63298817D01*
G75*
G02*
X55763683Y-63384845I-837345J751317D01*
G01*
G37*
D21*
X60325000Y-65087500D03*
D20*
X57825000Y-61087500D03*
D22*
X55245000Y-65087500D03*
X65405000Y-65087500D03*
%TD*%
%TO.C,MX6*%
G36*
G01*
X67510983Y-80759895D02*
X67510097Y-80759834D01*
G75*
G02*
X66465166Y-79560097I77403J1122334D01*
G01*
X66505166Y-78980097D01*
G75*
G02*
X67704903Y-77935166I1122334J-77403D01*
G01*
X67704903Y-77935166D01*
G75*
G02*
X68749834Y-79134903I-77403J-1122334D01*
G01*
X68709834Y-79714903D01*
G75*
G02*
X67510097Y-80759834I-1122334J77403D01*
G01*
G37*
D20*
X67627500Y-79057500D03*
G36*
G01*
X60526188Y-82434850D02*
X60526183Y-82434845D01*
G75*
G02*
X60440155Y-80846183I751317J837345D01*
G01*
X61750157Y-79386183D01*
G75*
G02*
X63338819Y-79300155I837345J-751317D01*
G01*
X63338819Y-79300155D01*
G75*
G02*
X63424847Y-80888817I-751317J-837345D01*
G01*
X62114845Y-82348817D01*
G75*
G02*
X60526183Y-82434845I-837345J751317D01*
G01*
G37*
D21*
X65087500Y-84137500D03*
D20*
X62587500Y-80137500D03*
D22*
X60007500Y-84137500D03*
X70167500Y-84137500D03*
%TD*%
%TO.C,MX3*%
G36*
G01*
X48460983Y-99809895D02*
X48460097Y-99809834D01*
G75*
G02*
X47415166Y-98610097I77403J1122334D01*
G01*
X47455166Y-98030097D01*
G75*
G02*
X48654903Y-96985166I1122334J-77403D01*
G01*
X48654903Y-96985166D01*
G75*
G02*
X49699834Y-98184903I-77403J-1122334D01*
G01*
X49659834Y-98764903D01*
G75*
G02*
X48460097Y-99809834I-1122334J77403D01*
G01*
G37*
D20*
X48577500Y-98107500D03*
G36*
G01*
X41476188Y-101484850D02*
X41476183Y-101484845D01*
G75*
G02*
X41390155Y-99896183I751317J837345D01*
G01*
X42700157Y-98436183D01*
G75*
G02*
X44288819Y-98350155I837345J-751317D01*
G01*
X44288819Y-98350155D01*
G75*
G02*
X44374847Y-99938817I-751317J-837345D01*
G01*
X43064845Y-101398817D01*
G75*
G02*
X41476183Y-101484845I-837345J751317D01*
G01*
G37*
D21*
X46037500Y-103187500D03*
D20*
X43537500Y-99187500D03*
D22*
X40957500Y-103187500D03*
X51117500Y-103187500D03*
%TD*%
%TO.C,MX10*%
G36*
G01*
X86560983Y-80759895D02*
X86560097Y-80759834D01*
G75*
G02*
X85515166Y-79560097I77403J1122334D01*
G01*
X85555166Y-78980097D01*
G75*
G02*
X86754903Y-77935166I1122334J-77403D01*
G01*
X86754903Y-77935166D01*
G75*
G02*
X87799834Y-79134903I-77403J-1122334D01*
G01*
X87759834Y-79714903D01*
G75*
G02*
X86560097Y-80759834I-1122334J77403D01*
G01*
G37*
D20*
X86677500Y-79057500D03*
G36*
G01*
X79576188Y-82434850D02*
X79576183Y-82434845D01*
G75*
G02*
X79490155Y-80846183I751317J837345D01*
G01*
X80800157Y-79386183D01*
G75*
G02*
X82388819Y-79300155I837345J-751317D01*
G01*
X82388819Y-79300155D01*
G75*
G02*
X82474847Y-80888817I-751317J-837345D01*
G01*
X81164845Y-82348817D01*
G75*
G02*
X79576183Y-82434845I-837345J751317D01*
G01*
G37*
D21*
X84137500Y-84137500D03*
D20*
X81637500Y-80137500D03*
D22*
X79057500Y-84137500D03*
X89217500Y-84137500D03*
%TD*%
%TO.C,MX2*%
G36*
G01*
X46079733Y-80759895D02*
X46078847Y-80759834D01*
G75*
G02*
X45033916Y-79560097I77403J1122334D01*
G01*
X45073916Y-78980097D01*
G75*
G02*
X46273653Y-77935166I1122334J-77403D01*
G01*
X46273653Y-77935166D01*
G75*
G02*
X47318584Y-79134903I-77403J-1122334D01*
G01*
X47278584Y-79714903D01*
G75*
G02*
X46078847Y-80759834I-1122334J77403D01*
G01*
G37*
D20*
X46196250Y-79057500D03*
G36*
G01*
X39094938Y-82434850D02*
X39094933Y-82434845D01*
G75*
G02*
X39008905Y-80846183I751317J837345D01*
G01*
X40318907Y-79386183D01*
G75*
G02*
X41907569Y-79300155I837345J-751317D01*
G01*
X41907569Y-79300155D01*
G75*
G02*
X41993597Y-80888817I-751317J-837345D01*
G01*
X40683595Y-82348817D01*
G75*
G02*
X39094933Y-82434845I-837345J751317D01*
G01*
G37*
D21*
X43656250Y-84137500D03*
D20*
X41156250Y-80137500D03*
D22*
X38576250Y-84137500D03*
X48736250Y-84137500D03*
%TD*%
%TO.C,MX4*%
G36*
G01*
X43698483Y-118859895D02*
X43697597Y-118859834D01*
G75*
G02*
X42652666Y-117660097I77403J1122334D01*
G01*
X42692666Y-117080097D01*
G75*
G02*
X43892403Y-116035166I1122334J-77403D01*
G01*
X43892403Y-116035166D01*
G75*
G02*
X44937334Y-117234903I-77403J-1122334D01*
G01*
X44897334Y-117814903D01*
G75*
G02*
X43697597Y-118859834I-1122334J77403D01*
G01*
G37*
D20*
X43815000Y-117157500D03*
G36*
G01*
X36713688Y-120534850D02*
X36713683Y-120534845D01*
G75*
G02*
X36627655Y-118946183I751317J837345D01*
G01*
X37937657Y-117486183D01*
G75*
G02*
X39526319Y-117400155I837345J-751317D01*
G01*
X39526319Y-117400155D01*
G75*
G02*
X39612347Y-118988817I-751317J-837345D01*
G01*
X38302345Y-120448817D01*
G75*
G02*
X36713683Y-120534845I-837345J751317D01*
G01*
G37*
D21*
X41275000Y-122237500D03*
D20*
X38775000Y-118237500D03*
D22*
X36195000Y-122237500D03*
X46355000Y-122237500D03*
%TD*%
%TO.C,MX9*%
G36*
G01*
X81798483Y-61709895D02*
X81797597Y-61709834D01*
G75*
G02*
X80752666Y-60510097I77403J1122334D01*
G01*
X80792666Y-59930097D01*
G75*
G02*
X81992403Y-58885166I1122334J-77403D01*
G01*
X81992403Y-58885166D01*
G75*
G02*
X83037334Y-60084903I-77403J-1122334D01*
G01*
X82997334Y-60664903D01*
G75*
G02*
X81797597Y-61709834I-1122334J77403D01*
G01*
G37*
D20*
X81915000Y-60007500D03*
G36*
G01*
X74813688Y-63384850D02*
X74813683Y-63384845D01*
G75*
G02*
X74727655Y-61796183I751317J837345D01*
G01*
X76037657Y-60336183D01*
G75*
G02*
X77626319Y-60250155I837345J-751317D01*
G01*
X77626319Y-60250155D01*
G75*
G02*
X77712347Y-61838817I-751317J-837345D01*
G01*
X76402345Y-63298817D01*
G75*
G02*
X74813683Y-63384845I-837345J751317D01*
G01*
G37*
D21*
X79375000Y-65087500D03*
D20*
X76875000Y-61087500D03*
D22*
X74295000Y-65087500D03*
X84455000Y-65087500D03*
%TD*%
%TO.C,MX1*%
G36*
G01*
X43698483Y-61709895D02*
X43697597Y-61709834D01*
G75*
G02*
X42652666Y-60510097I77403J1122334D01*
G01*
X42692666Y-59930097D01*
G75*
G02*
X43892403Y-58885166I1122334J-77403D01*
G01*
X43892403Y-58885166D01*
G75*
G02*
X44937334Y-60084903I-77403J-1122334D01*
G01*
X44897334Y-60664903D01*
G75*
G02*
X43697597Y-61709834I-1122334J77403D01*
G01*
G37*
D20*
X43815000Y-60007500D03*
G36*
G01*
X36713688Y-63384850D02*
X36713683Y-63384845D01*
G75*
G02*
X36627655Y-61796183I751317J837345D01*
G01*
X37937657Y-60336183D01*
G75*
G02*
X39526319Y-60250155I837345J-751317D01*
G01*
X39526319Y-60250155D01*
G75*
G02*
X39612347Y-61838817I-751317J-837345D01*
G01*
X38302345Y-63298817D01*
G75*
G02*
X36713683Y-63384845I-837345J751317D01*
G01*
G37*
D21*
X41275000Y-65087500D03*
D20*
X38775000Y-61087500D03*
D22*
X36195000Y-65087500D03*
X46355000Y-65087500D03*
%TD*%
%TO.C,MX7*%
G36*
G01*
X72273483Y-99809895D02*
X72272597Y-99809834D01*
G75*
G02*
X71227666Y-98610097I77403J1122334D01*
G01*
X71267666Y-98030097D01*
G75*
G02*
X72467403Y-96985166I1122334J-77403D01*
G01*
X72467403Y-96985166D01*
G75*
G02*
X73512334Y-98184903I-77403J-1122334D01*
G01*
X73472334Y-98764903D01*
G75*
G02*
X72272597Y-99809834I-1122334J77403D01*
G01*
G37*
D20*
X72390000Y-98107500D03*
G36*
G01*
X65288688Y-101484850D02*
X65288683Y-101484845D01*
G75*
G02*
X65202655Y-99896183I751317J837345D01*
G01*
X66512657Y-98436183D01*
G75*
G02*
X68101319Y-98350155I837345J-751317D01*
G01*
X68101319Y-98350155D01*
G75*
G02*
X68187347Y-99938817I-751317J-837345D01*
G01*
X66877345Y-101398817D01*
G75*
G02*
X65288683Y-101484845I-837345J751317D01*
G01*
G37*
D21*
X69850000Y-103187500D03*
D20*
X67350000Y-99187500D03*
D22*
X64770000Y-103187500D03*
X74930000Y-103187500D03*
%TD*%
%TO.C,MX12*%
G36*
G01*
X81798483Y-118859895D02*
X81797597Y-118859834D01*
G75*
G02*
X80752666Y-117660097I77403J1122334D01*
G01*
X80792666Y-117080097D01*
G75*
G02*
X81992403Y-116035166I1122334J-77403D01*
G01*
X81992403Y-116035166D01*
G75*
G02*
X83037334Y-117234903I-77403J-1122334D01*
G01*
X82997334Y-117814903D01*
G75*
G02*
X81797597Y-118859834I-1122334J77403D01*
G01*
G37*
D20*
X81915000Y-117157500D03*
G36*
G01*
X74813688Y-120534850D02*
X74813683Y-120534845D01*
G75*
G02*
X74727655Y-118946183I751317J837345D01*
G01*
X76037657Y-117486183D01*
G75*
G02*
X77626319Y-117400155I837345J-751317D01*
G01*
X77626319Y-117400155D01*
G75*
G02*
X77712347Y-118988817I-751317J-837345D01*
G01*
X76402345Y-120448817D01*
G75*
G02*
X74813683Y-120534845I-837345J751317D01*
G01*
G37*
D21*
X79375000Y-122237500D03*
D20*
X76875000Y-118237500D03*
D22*
X74295000Y-122237500D03*
X84455000Y-122237500D03*
%TD*%
%TO.C,MX14*%
G36*
G01*
X105610983Y-80759895D02*
X105610097Y-80759834D01*
G75*
G02*
X104565166Y-79560097I77403J1122334D01*
G01*
X104605166Y-78980097D01*
G75*
G02*
X105804903Y-77935166I1122334J-77403D01*
G01*
X105804903Y-77935166D01*
G75*
G02*
X106849834Y-79134903I-77403J-1122334D01*
G01*
X106809834Y-79714903D01*
G75*
G02*
X105610097Y-80759834I-1122334J77403D01*
G01*
G37*
D20*
X105727500Y-79057500D03*
G36*
G01*
X98626188Y-82434850D02*
X98626183Y-82434845D01*
G75*
G02*
X98540155Y-80846183I751317J837345D01*
G01*
X99850157Y-79386183D01*
G75*
G02*
X101438819Y-79300155I837345J-751317D01*
G01*
X101438819Y-79300155D01*
G75*
G02*
X101524847Y-80888817I-751317J-837345D01*
G01*
X100214845Y-82348817D01*
G75*
G02*
X98626183Y-82434845I-837345J751317D01*
G01*
G37*
D21*
X103187500Y-84137500D03*
D20*
X100687500Y-80137500D03*
D22*
X98107500Y-84137500D03*
X108267500Y-84137500D03*
%TD*%
%TO.C,MX13*%
G36*
G01*
X100848483Y-61709895D02*
X100847597Y-61709834D01*
G75*
G02*
X99802666Y-60510097I77403J1122334D01*
G01*
X99842666Y-59930097D01*
G75*
G02*
X101042403Y-58885166I1122334J-77403D01*
G01*
X101042403Y-58885166D01*
G75*
G02*
X102087334Y-60084903I-77403J-1122334D01*
G01*
X102047334Y-60664903D01*
G75*
G02*
X100847597Y-61709834I-1122334J77403D01*
G01*
G37*
D20*
X100965000Y-60007500D03*
G36*
G01*
X93863688Y-63384850D02*
X93863683Y-63384845D01*
G75*
G02*
X93777655Y-61796183I751317J837345D01*
G01*
X95087657Y-60336183D01*
G75*
G02*
X96676319Y-60250155I837345J-751317D01*
G01*
X96676319Y-60250155D01*
G75*
G02*
X96762347Y-61838817I-751317J-837345D01*
G01*
X95452345Y-63298817D01*
G75*
G02*
X93863683Y-63384845I-837345J751317D01*
G01*
G37*
D21*
X98425000Y-65087500D03*
D20*
X95925000Y-61087500D03*
D22*
X93345000Y-65087500D03*
X103505000Y-65087500D03*
%TD*%
%TO.C,MX33*%
G36*
G01*
X200860983Y-80759895D02*
X200860097Y-80759834D01*
G75*
G02*
X199815166Y-79560097I77403J1122334D01*
G01*
X199855166Y-78980097D01*
G75*
G02*
X201054903Y-77935166I1122334J-77403D01*
G01*
X201054903Y-77935166D01*
G75*
G02*
X202099834Y-79134903I-77403J-1122334D01*
G01*
X202059834Y-79714903D01*
G75*
G02*
X200860097Y-80759834I-1122334J77403D01*
G01*
G37*
D20*
X200977500Y-79057500D03*
G36*
G01*
X193876188Y-82434850D02*
X193876183Y-82434845D01*
G75*
G02*
X193790155Y-80846183I751317J837345D01*
G01*
X195100157Y-79386183D01*
G75*
G02*
X196688819Y-79300155I837345J-751317D01*
G01*
X196688819Y-79300155D01*
G75*
G02*
X196774847Y-80888817I-751317J-837345D01*
G01*
X195464845Y-82348817D01*
G75*
G02*
X193876183Y-82434845I-837345J751317D01*
G01*
G37*
D21*
X198437500Y-84137500D03*
D20*
X195937500Y-80137500D03*
D22*
X193357500Y-84137500D03*
X203517500Y-84137500D03*
%TD*%
%TO.C,MX46*%
G36*
G01*
X262773483Y-99809895D02*
X262772597Y-99809834D01*
G75*
G02*
X261727666Y-98610097I77403J1122334D01*
G01*
X261767666Y-98030097D01*
G75*
G02*
X262967403Y-96985166I1122334J-77403D01*
G01*
X262967403Y-96985166D01*
G75*
G02*
X264012334Y-98184903I-77403J-1122334D01*
G01*
X263972334Y-98764903D01*
G75*
G02*
X262772597Y-99809834I-1122334J77403D01*
G01*
G37*
D20*
X262890000Y-98107500D03*
G36*
G01*
X255788688Y-101484850D02*
X255788683Y-101484845D01*
G75*
G02*
X255702655Y-99896183I751317J837345D01*
G01*
X257012657Y-98436183D01*
G75*
G02*
X258601319Y-98350155I837345J-751317D01*
G01*
X258601319Y-98350155D01*
G75*
G02*
X258687347Y-99938817I-751317J-837345D01*
G01*
X257377345Y-101398817D01*
G75*
G02*
X255788683Y-101484845I-837345J751317D01*
G01*
G37*
D21*
X260350000Y-103187500D03*
D20*
X257850000Y-99187500D03*
D22*
X255270000Y-103187500D03*
X265430000Y-103187500D03*
%TD*%
%TO.C,MX44*%
G36*
G01*
X258010983Y-61709895D02*
X258010097Y-61709834D01*
G75*
G02*
X256965166Y-60510097I77403J1122334D01*
G01*
X257005166Y-59930097D01*
G75*
G02*
X258204903Y-58885166I1122334J-77403D01*
G01*
X258204903Y-58885166D01*
G75*
G02*
X259249834Y-60084903I-77403J-1122334D01*
G01*
X259209834Y-60664903D01*
G75*
G02*
X258010097Y-61709834I-1122334J77403D01*
G01*
G37*
D20*
X258127500Y-60007500D03*
G36*
G01*
X251026188Y-63384850D02*
X251026183Y-63384845D01*
G75*
G02*
X250940155Y-61796183I751317J837345D01*
G01*
X252250157Y-60336183D01*
G75*
G02*
X253838819Y-60250155I837345J-751317D01*
G01*
X253838819Y-60250155D01*
G75*
G02*
X253924847Y-61838817I-751317J-837345D01*
G01*
X252614845Y-63298817D01*
G75*
G02*
X251026183Y-63384845I-837345J751317D01*
G01*
G37*
D21*
X255587500Y-65087500D03*
D20*
X253087500Y-61087500D03*
D22*
X250507500Y-65087500D03*
X260667500Y-65087500D03*
%TD*%
%TO.C,MX42*%
G36*
G01*
X243723483Y-99809895D02*
X243722597Y-99809834D01*
G75*
G02*
X242677666Y-98610097I77403J1122334D01*
G01*
X242717666Y-98030097D01*
G75*
G02*
X243917403Y-96985166I1122334J-77403D01*
G01*
X243917403Y-96985166D01*
G75*
G02*
X244962334Y-98184903I-77403J-1122334D01*
G01*
X244922334Y-98764903D01*
G75*
G02*
X243722597Y-99809834I-1122334J77403D01*
G01*
G37*
D20*
X243840000Y-98107500D03*
G36*
G01*
X236738688Y-101484850D02*
X236738683Y-101484845D01*
G75*
G02*
X236652655Y-99896183I751317J837345D01*
G01*
X237962657Y-98436183D01*
G75*
G02*
X239551319Y-98350155I837345J-751317D01*
G01*
X239551319Y-98350155D01*
G75*
G02*
X239637347Y-99938817I-751317J-837345D01*
G01*
X238327345Y-101398817D01*
G75*
G02*
X236738683Y-101484845I-837345J751317D01*
G01*
G37*
D21*
X241300000Y-103187500D03*
D20*
X238800000Y-99187500D03*
D22*
X236220000Y-103187500D03*
X246380000Y-103187500D03*
%TD*%
%TO.C,MX41*%
G36*
G01*
X238960983Y-80759895D02*
X238960097Y-80759834D01*
G75*
G02*
X237915166Y-79560097I77403J1122334D01*
G01*
X237955166Y-78980097D01*
G75*
G02*
X239154903Y-77935166I1122334J-77403D01*
G01*
X239154903Y-77935166D01*
G75*
G02*
X240199834Y-79134903I-77403J-1122334D01*
G01*
X240159834Y-79714903D01*
G75*
G02*
X238960097Y-80759834I-1122334J77403D01*
G01*
G37*
D20*
X239077500Y-79057500D03*
G36*
G01*
X231976188Y-82434850D02*
X231976183Y-82434845D01*
G75*
G02*
X231890155Y-80846183I751317J837345D01*
G01*
X233200157Y-79386183D01*
G75*
G02*
X234788819Y-79300155I837345J-751317D01*
G01*
X234788819Y-79300155D01*
G75*
G02*
X234874847Y-80888817I-751317J-837345D01*
G01*
X233564845Y-82348817D01*
G75*
G02*
X231976183Y-82434845I-837345J751317D01*
G01*
G37*
D21*
X236537500Y-84137500D03*
D20*
X234037500Y-80137500D03*
D22*
X231457500Y-84137500D03*
X241617500Y-84137500D03*
%TD*%
%TO.C,MX45*%
G36*
G01*
X260392233Y-80759895D02*
X260391347Y-80759834D01*
G75*
G02*
X259346416Y-79560097I77403J1122334D01*
G01*
X259386416Y-78980097D01*
G75*
G02*
X260586153Y-77935166I1122334J-77403D01*
G01*
X260586153Y-77935166D01*
G75*
G02*
X261631084Y-79134903I-77403J-1122334D01*
G01*
X261591084Y-79714903D01*
G75*
G02*
X260391347Y-80759834I-1122334J77403D01*
G01*
G37*
D20*
X260508750Y-79057500D03*
G36*
G01*
X253407438Y-82434850D02*
X253407433Y-82434845D01*
G75*
G02*
X253321405Y-80846183I751317J837345D01*
G01*
X254631407Y-79386183D01*
G75*
G02*
X256220069Y-79300155I837345J-751317D01*
G01*
X256220069Y-79300155D01*
G75*
G02*
X256306097Y-80888817I-751317J-837345D01*
G01*
X254996095Y-82348817D01*
G75*
G02*
X253407433Y-82434845I-837345J751317D01*
G01*
G37*
D21*
X257968750Y-84137500D03*
D20*
X255468750Y-80137500D03*
D22*
X252888750Y-84137500D03*
X263048750Y-84137500D03*
%TD*%
%TO.C,MX39*%
G36*
G01*
X224673483Y-118859895D02*
X224672597Y-118859834D01*
G75*
G02*
X223627666Y-117660097I77403J1122334D01*
G01*
X223667666Y-117080097D01*
G75*
G02*
X224867403Y-116035166I1122334J-77403D01*
G01*
X224867403Y-116035166D01*
G75*
G02*
X225912334Y-117234903I-77403J-1122334D01*
G01*
X225872334Y-117814903D01*
G75*
G02*
X224672597Y-118859834I-1122334J77403D01*
G01*
G37*
D20*
X224790000Y-117157500D03*
G36*
G01*
X217688688Y-120534850D02*
X217688683Y-120534845D01*
G75*
G02*
X217602655Y-118946183I751317J837345D01*
G01*
X218912657Y-117486183D01*
G75*
G02*
X220501319Y-117400155I837345J-751317D01*
G01*
X220501319Y-117400155D01*
G75*
G02*
X220587347Y-118988817I-751317J-837345D01*
G01*
X219277345Y-120448817D01*
G75*
G02*
X217688683Y-120534845I-837345J751317D01*
G01*
G37*
D21*
X222250000Y-122237500D03*
D20*
X219750000Y-118237500D03*
D22*
X217170000Y-122237500D03*
X227330000Y-122237500D03*
%TD*%
%TO.C,MX43*%
G36*
G01*
X243723483Y-118859895D02*
X243722597Y-118859834D01*
G75*
G02*
X242677666Y-117660097I77403J1122334D01*
G01*
X242717666Y-117080097D01*
G75*
G02*
X243917403Y-116035166I1122334J-77403D01*
G01*
X243917403Y-116035166D01*
G75*
G02*
X244962334Y-117234903I-77403J-1122334D01*
G01*
X244922334Y-117814903D01*
G75*
G02*
X243722597Y-118859834I-1122334J77403D01*
G01*
G37*
D20*
X243840000Y-117157500D03*
G36*
G01*
X236738688Y-120534850D02*
X236738683Y-120534845D01*
G75*
G02*
X236652655Y-118946183I751317J837345D01*
G01*
X237962657Y-117486183D01*
G75*
G02*
X239551319Y-117400155I837345J-751317D01*
G01*
X239551319Y-117400155D01*
G75*
G02*
X239637347Y-118988817I-751317J-837345D01*
G01*
X238327345Y-120448817D01*
G75*
G02*
X236738683Y-120534845I-837345J751317D01*
G01*
G37*
D21*
X241300000Y-122237500D03*
D20*
X238800000Y-118237500D03*
D22*
X236220000Y-122237500D03*
X246380000Y-122237500D03*
%TD*%
%TO.C,MX38*%
G36*
G01*
X224673483Y-99809895D02*
X224672597Y-99809834D01*
G75*
G02*
X223627666Y-98610097I77403J1122334D01*
G01*
X223667666Y-98030097D01*
G75*
G02*
X224867403Y-96985166I1122334J-77403D01*
G01*
X224867403Y-96985166D01*
G75*
G02*
X225912334Y-98184903I-77403J-1122334D01*
G01*
X225872334Y-98764903D01*
G75*
G02*
X224672597Y-99809834I-1122334J77403D01*
G01*
G37*
D20*
X224790000Y-98107500D03*
G36*
G01*
X217688688Y-101484850D02*
X217688683Y-101484845D01*
G75*
G02*
X217602655Y-99896183I751317J837345D01*
G01*
X218912657Y-98436183D01*
G75*
G02*
X220501319Y-98350155I837345J-751317D01*
G01*
X220501319Y-98350155D01*
G75*
G02*
X220587347Y-99938817I-751317J-837345D01*
G01*
X219277345Y-101398817D01*
G75*
G02*
X217688683Y-101484845I-837345J751317D01*
G01*
G37*
D21*
X222250000Y-103187500D03*
D20*
X219750000Y-99187500D03*
D22*
X217170000Y-103187500D03*
X227330000Y-103187500D03*
%TD*%
%TO.C,MX37*%
G36*
G01*
X219910983Y-80759895D02*
X219910097Y-80759834D01*
G75*
G02*
X218865166Y-79560097I77403J1122334D01*
G01*
X218905166Y-78980097D01*
G75*
G02*
X220104903Y-77935166I1122334J-77403D01*
G01*
X220104903Y-77935166D01*
G75*
G02*
X221149834Y-79134903I-77403J-1122334D01*
G01*
X221109834Y-79714903D01*
G75*
G02*
X219910097Y-80759834I-1122334J77403D01*
G01*
G37*
D20*
X220027500Y-79057500D03*
G36*
G01*
X212926188Y-82434850D02*
X212926183Y-82434845D01*
G75*
G02*
X212840155Y-80846183I751317J837345D01*
G01*
X214150157Y-79386183D01*
G75*
G02*
X215738819Y-79300155I837345J-751317D01*
G01*
X215738819Y-79300155D01*
G75*
G02*
X215824847Y-80888817I-751317J-837345D01*
G01*
X214514845Y-82348817D01*
G75*
G02*
X212926183Y-82434845I-837345J751317D01*
G01*
G37*
D21*
X217487500Y-84137500D03*
D20*
X214987500Y-80137500D03*
D22*
X212407500Y-84137500D03*
X222567500Y-84137500D03*
%TD*%
%TO.C,MX35*%
G36*
G01*
X205623483Y-118859895D02*
X205622597Y-118859834D01*
G75*
G02*
X204577666Y-117660097I77403J1122334D01*
G01*
X204617666Y-117080097D01*
G75*
G02*
X205817403Y-116035166I1122334J-77403D01*
G01*
X205817403Y-116035166D01*
G75*
G02*
X206862334Y-117234903I-77403J-1122334D01*
G01*
X206822334Y-117814903D01*
G75*
G02*
X205622597Y-118859834I-1122334J77403D01*
G01*
G37*
D20*
X205740000Y-117157500D03*
G36*
G01*
X198638688Y-120534850D02*
X198638683Y-120534845D01*
G75*
G02*
X198552655Y-118946183I751317J837345D01*
G01*
X199862657Y-117486183D01*
G75*
G02*
X201451319Y-117400155I837345J-751317D01*
G01*
X201451319Y-117400155D01*
G75*
G02*
X201537347Y-118988817I-751317J-837345D01*
G01*
X200227345Y-120448817D01*
G75*
G02*
X198638683Y-120534845I-837345J751317D01*
G01*
G37*
D21*
X203200000Y-122237500D03*
D20*
X200700000Y-118237500D03*
D22*
X198120000Y-122237500D03*
X208280000Y-122237500D03*
%TD*%
%TO.C,MX40*%
G36*
G01*
X234198483Y-61709895D02*
X234197597Y-61709834D01*
G75*
G02*
X233152666Y-60510097I77403J1122334D01*
G01*
X233192666Y-59930097D01*
G75*
G02*
X234392403Y-58885166I1122334J-77403D01*
G01*
X234392403Y-58885166D01*
G75*
G02*
X235437334Y-60084903I-77403J-1122334D01*
G01*
X235397334Y-60664903D01*
G75*
G02*
X234197597Y-61709834I-1122334J77403D01*
G01*
G37*
D20*
X234315000Y-60007500D03*
G36*
G01*
X227213688Y-63384850D02*
X227213683Y-63384845D01*
G75*
G02*
X227127655Y-61796183I751317J837345D01*
G01*
X228437657Y-60336183D01*
G75*
G02*
X230026319Y-60250155I837345J-751317D01*
G01*
X230026319Y-60250155D01*
G75*
G02*
X230112347Y-61838817I-751317J-837345D01*
G01*
X228802345Y-63298817D01*
G75*
G02*
X227213683Y-63384845I-837345J751317D01*
G01*
G37*
D21*
X231775000Y-65087500D03*
D20*
X229275000Y-61087500D03*
D22*
X226695000Y-65087500D03*
X236855000Y-65087500D03*
%TD*%
%TO.C,MX47*%
G36*
G01*
X262773483Y-118859895D02*
X262772597Y-118859834D01*
G75*
G02*
X261727666Y-117660097I77403J1122334D01*
G01*
X261767666Y-117080097D01*
G75*
G02*
X262967403Y-116035166I1122334J-77403D01*
G01*
X262967403Y-116035166D01*
G75*
G02*
X264012334Y-117234903I-77403J-1122334D01*
G01*
X263972334Y-117814903D01*
G75*
G02*
X262772597Y-118859834I-1122334J77403D01*
G01*
G37*
D20*
X262890000Y-117157500D03*
G36*
G01*
X255788688Y-120534850D02*
X255788683Y-120534845D01*
G75*
G02*
X255702655Y-118946183I751317J837345D01*
G01*
X257012657Y-117486183D01*
G75*
G02*
X258601319Y-117400155I837345J-751317D01*
G01*
X258601319Y-117400155D01*
G75*
G02*
X258687347Y-118988817I-751317J-837345D01*
G01*
X257377345Y-120448817D01*
G75*
G02*
X255788683Y-120534845I-837345J751317D01*
G01*
G37*
D21*
X260350000Y-122237500D03*
D20*
X257850000Y-118237500D03*
D22*
X255270000Y-122237500D03*
X265430000Y-122237500D03*
%TD*%
%TO.C,MX34*%
G36*
G01*
X205623483Y-99809895D02*
X205622597Y-99809834D01*
G75*
G02*
X204577666Y-98610097I77403J1122334D01*
G01*
X204617666Y-98030097D01*
G75*
G02*
X205817403Y-96985166I1122334J-77403D01*
G01*
X205817403Y-96985166D01*
G75*
G02*
X206862334Y-98184903I-77403J-1122334D01*
G01*
X206822334Y-98764903D01*
G75*
G02*
X205622597Y-99809834I-1122334J77403D01*
G01*
G37*
D20*
X205740000Y-98107500D03*
G36*
G01*
X198638688Y-101484850D02*
X198638683Y-101484845D01*
G75*
G02*
X198552655Y-99896183I751317J837345D01*
G01*
X199862657Y-98436183D01*
G75*
G02*
X201451319Y-98350155I837345J-751317D01*
G01*
X201451319Y-98350155D01*
G75*
G02*
X201537347Y-99938817I-751317J-837345D01*
G01*
X200227345Y-101398817D01*
G75*
G02*
X198638683Y-101484845I-837345J751317D01*
G01*
G37*
D21*
X203200000Y-103187500D03*
D20*
X200700000Y-99187500D03*
D22*
X198120000Y-103187500D03*
X208280000Y-103187500D03*
%TD*%
%TO.C,MX36*%
G36*
G01*
X215148483Y-61709895D02*
X215147597Y-61709834D01*
G75*
G02*
X214102666Y-60510097I77403J1122334D01*
G01*
X214142666Y-59930097D01*
G75*
G02*
X215342403Y-58885166I1122334J-77403D01*
G01*
X215342403Y-58885166D01*
G75*
G02*
X216387334Y-60084903I-77403J-1122334D01*
G01*
X216347334Y-60664903D01*
G75*
G02*
X215147597Y-61709834I-1122334J77403D01*
G01*
G37*
D20*
X215265000Y-60007500D03*
G36*
G01*
X208163688Y-63384850D02*
X208163683Y-63384845D01*
G75*
G02*
X208077655Y-61796183I751317J837345D01*
G01*
X209387657Y-60336183D01*
G75*
G02*
X210976319Y-60250155I837345J-751317D01*
G01*
X210976319Y-60250155D01*
G75*
G02*
X211062347Y-61838817I-751317J-837345D01*
G01*
X209752345Y-63298817D01*
G75*
G02*
X208163683Y-63384845I-837345J751317D01*
G01*
G37*
D21*
X212725000Y-65087500D03*
D20*
X210225000Y-61087500D03*
D22*
X207645000Y-65087500D03*
X217805000Y-65087500D03*
%TD*%
%TO.C,MX23*%
G36*
G01*
X148473483Y-99809895D02*
X148472597Y-99809834D01*
G75*
G02*
X147427666Y-98610097I77403J1122334D01*
G01*
X147467666Y-98030097D01*
G75*
G02*
X148667403Y-96985166I1122334J-77403D01*
G01*
X148667403Y-96985166D01*
G75*
G02*
X149712334Y-98184903I-77403J-1122334D01*
G01*
X149672334Y-98764903D01*
G75*
G02*
X148472597Y-99809834I-1122334J77403D01*
G01*
G37*
D20*
X148590000Y-98107500D03*
G36*
G01*
X141488688Y-101484850D02*
X141488683Y-101484845D01*
G75*
G02*
X141402655Y-99896183I751317J837345D01*
G01*
X142712657Y-98436183D01*
G75*
G02*
X144301319Y-98350155I837345J-751317D01*
G01*
X144301319Y-98350155D01*
G75*
G02*
X144387347Y-99938817I-751317J-837345D01*
G01*
X143077345Y-101398817D01*
G75*
G02*
X141488683Y-101484845I-837345J751317D01*
G01*
G37*
D21*
X146050000Y-103187500D03*
D20*
X143550000Y-99187500D03*
D22*
X140970000Y-103187500D03*
X151130000Y-103187500D03*
%TD*%
%TO.C,MX17*%
G36*
G01*
X119898483Y-61709895D02*
X119897597Y-61709834D01*
G75*
G02*
X118852666Y-60510097I77403J1122334D01*
G01*
X118892666Y-59930097D01*
G75*
G02*
X120092403Y-58885166I1122334J-77403D01*
G01*
X120092403Y-58885166D01*
G75*
G02*
X121137334Y-60084903I-77403J-1122334D01*
G01*
X121097334Y-60664903D01*
G75*
G02*
X119897597Y-61709834I-1122334J77403D01*
G01*
G37*
D20*
X120015000Y-60007500D03*
G36*
G01*
X112913688Y-63384850D02*
X112913683Y-63384845D01*
G75*
G02*
X112827655Y-61796183I751317J837345D01*
G01*
X114137657Y-60336183D01*
G75*
G02*
X115726319Y-60250155I837345J-751317D01*
G01*
X115726319Y-60250155D01*
G75*
G02*
X115812347Y-61838817I-751317J-837345D01*
G01*
X114502345Y-63298817D01*
G75*
G02*
X112913683Y-63384845I-837345J751317D01*
G01*
G37*
D21*
X117475000Y-65087500D03*
D20*
X114975000Y-61087500D03*
D22*
X112395000Y-65087500D03*
X122555000Y-65087500D03*
%TD*%
%TO.C,MX27*%
G36*
G01*
X167523483Y-99809895D02*
X167522597Y-99809834D01*
G75*
G02*
X166477666Y-98610097I77403J1122334D01*
G01*
X166517666Y-98030097D01*
G75*
G02*
X167717403Y-96985166I1122334J-77403D01*
G01*
X167717403Y-96985166D01*
G75*
G02*
X168762334Y-98184903I-77403J-1122334D01*
G01*
X168722334Y-98764903D01*
G75*
G02*
X167522597Y-99809834I-1122334J77403D01*
G01*
G37*
D20*
X167640000Y-98107500D03*
G36*
G01*
X160538688Y-101484850D02*
X160538683Y-101484845D01*
G75*
G02*
X160452655Y-99896183I751317J837345D01*
G01*
X161762657Y-98436183D01*
G75*
G02*
X163351319Y-98350155I837345J-751317D01*
G01*
X163351319Y-98350155D01*
G75*
G02*
X163437347Y-99938817I-751317J-837345D01*
G01*
X162127345Y-101398817D01*
G75*
G02*
X160538683Y-101484845I-837345J751317D01*
G01*
G37*
D21*
X165100000Y-103187500D03*
D20*
X162600000Y-99187500D03*
D22*
X160020000Y-103187500D03*
X170180000Y-103187500D03*
%TD*%
%TO.C,MX31*%
G36*
G01*
X184192233Y-118859895D02*
X184191347Y-118859834D01*
G75*
G02*
X183146416Y-117660097I77403J1122334D01*
G01*
X183186416Y-117080097D01*
G75*
G02*
X184386153Y-116035166I1122334J-77403D01*
G01*
X184386153Y-116035166D01*
G75*
G02*
X185431084Y-117234903I-77403J-1122334D01*
G01*
X185391084Y-117814903D01*
G75*
G02*
X184191347Y-118859834I-1122334J77403D01*
G01*
G37*
D20*
X184308750Y-117157500D03*
G36*
G01*
X177207438Y-120534850D02*
X177207433Y-120534845D01*
G75*
G02*
X177121405Y-118946183I751317J837345D01*
G01*
X178431407Y-117486183D01*
G75*
G02*
X180020069Y-117400155I837345J-751317D01*
G01*
X180020069Y-117400155D01*
G75*
G02*
X180106097Y-118988817I-751317J-837345D01*
G01*
X178796095Y-120448817D01*
G75*
G02*
X177207433Y-120534845I-837345J751317D01*
G01*
G37*
D21*
X181768750Y-122237500D03*
D20*
X179268750Y-118237500D03*
D22*
X176688750Y-122237500D03*
X186848750Y-122237500D03*
%TD*%
%TO.C,MX22*%
G36*
G01*
X143710983Y-80759895D02*
X143710097Y-80759834D01*
G75*
G02*
X142665166Y-79560097I77403J1122334D01*
G01*
X142705166Y-78980097D01*
G75*
G02*
X143904903Y-77935166I1122334J-77403D01*
G01*
X143904903Y-77935166D01*
G75*
G02*
X144949834Y-79134903I-77403J-1122334D01*
G01*
X144909834Y-79714903D01*
G75*
G02*
X143710097Y-80759834I-1122334J77403D01*
G01*
G37*
D20*
X143827500Y-79057500D03*
G36*
G01*
X136726188Y-82434850D02*
X136726183Y-82434845D01*
G75*
G02*
X136640155Y-80846183I751317J837345D01*
G01*
X137950157Y-79386183D01*
G75*
G02*
X139538819Y-79300155I837345J-751317D01*
G01*
X139538819Y-79300155D01*
G75*
G02*
X139624847Y-80888817I-751317J-837345D01*
G01*
X138314845Y-82348817D01*
G75*
G02*
X136726183Y-82434845I-837345J751317D01*
G01*
G37*
D21*
X141287500Y-84137500D03*
D20*
X138787500Y-80137500D03*
D22*
X136207500Y-84137500D03*
X146367500Y-84137500D03*
%TD*%
%TO.C,MX25*%
G36*
G01*
X157998483Y-61709895D02*
X157997597Y-61709834D01*
G75*
G02*
X156952666Y-60510097I77403J1122334D01*
G01*
X156992666Y-59930097D01*
G75*
G02*
X158192403Y-58885166I1122334J-77403D01*
G01*
X158192403Y-58885166D01*
G75*
G02*
X159237334Y-60084903I-77403J-1122334D01*
G01*
X159197334Y-60664903D01*
G75*
G02*
X157997597Y-61709834I-1122334J77403D01*
G01*
G37*
D20*
X158115000Y-60007500D03*
G36*
G01*
X151013688Y-63384850D02*
X151013683Y-63384845D01*
G75*
G02*
X150927655Y-61796183I751317J837345D01*
G01*
X152237657Y-60336183D01*
G75*
G02*
X153826319Y-60250155I837345J-751317D01*
G01*
X153826319Y-60250155D01*
G75*
G02*
X153912347Y-61838817I-751317J-837345D01*
G01*
X152602345Y-63298817D01*
G75*
G02*
X151013683Y-63384845I-837345J751317D01*
G01*
G37*
D21*
X155575000Y-65087500D03*
D20*
X153075000Y-61087500D03*
D22*
X150495000Y-65087500D03*
X160655000Y-65087500D03*
%TD*%
%TO.C,MX32*%
G36*
G01*
X196098483Y-61709895D02*
X196097597Y-61709834D01*
G75*
G02*
X195052666Y-60510097I77403J1122334D01*
G01*
X195092666Y-59930097D01*
G75*
G02*
X196292403Y-58885166I1122334J-77403D01*
G01*
X196292403Y-58885166D01*
G75*
G02*
X197337334Y-60084903I-77403J-1122334D01*
G01*
X197297334Y-60664903D01*
G75*
G02*
X196097597Y-61709834I-1122334J77403D01*
G01*
G37*
D20*
X196215000Y-60007500D03*
G36*
G01*
X189113688Y-63384850D02*
X189113683Y-63384845D01*
G75*
G02*
X189027655Y-61796183I751317J837345D01*
G01*
X190337657Y-60336183D01*
G75*
G02*
X191926319Y-60250155I837345J-751317D01*
G01*
X191926319Y-60250155D01*
G75*
G02*
X192012347Y-61838817I-751317J-837345D01*
G01*
X190702345Y-63298817D01*
G75*
G02*
X189113683Y-63384845I-837345J751317D01*
G01*
G37*
D21*
X193675000Y-65087500D03*
D20*
X191175000Y-61087500D03*
D22*
X188595000Y-65087500D03*
X198755000Y-65087500D03*
%TD*%
%TO.C,MX18*%
G36*
G01*
X124660983Y-80759895D02*
X124660097Y-80759834D01*
G75*
G02*
X123615166Y-79560097I77403J1122334D01*
G01*
X123655166Y-78980097D01*
G75*
G02*
X124854903Y-77935166I1122334J-77403D01*
G01*
X124854903Y-77935166D01*
G75*
G02*
X125899834Y-79134903I-77403J-1122334D01*
G01*
X125859834Y-79714903D01*
G75*
G02*
X124660097Y-80759834I-1122334J77403D01*
G01*
G37*
D20*
X124777500Y-79057500D03*
G36*
G01*
X117676188Y-82434850D02*
X117676183Y-82434845D01*
G75*
G02*
X117590155Y-80846183I751317J837345D01*
G01*
X118900157Y-79386183D01*
G75*
G02*
X120488819Y-79300155I837345J-751317D01*
G01*
X120488819Y-79300155D01*
G75*
G02*
X120574847Y-80888817I-751317J-837345D01*
G01*
X119264845Y-82348817D01*
G75*
G02*
X117676183Y-82434845I-837345J751317D01*
G01*
G37*
D21*
X122237500Y-84137500D03*
D20*
X119737500Y-80137500D03*
D22*
X117157500Y-84137500D03*
X127317500Y-84137500D03*
%TD*%
%TO.C,MX16*%
G36*
G01*
X100848483Y-118859895D02*
X100847597Y-118859834D01*
G75*
G02*
X99802666Y-117660097I77403J1122334D01*
G01*
X99842666Y-117080097D01*
G75*
G02*
X101042403Y-116035166I1122334J-77403D01*
G01*
X101042403Y-116035166D01*
G75*
G02*
X102087334Y-117234903I-77403J-1122334D01*
G01*
X102047334Y-117814903D01*
G75*
G02*
X100847597Y-118859834I-1122334J77403D01*
G01*
G37*
D20*
X100965000Y-117157500D03*
G36*
G01*
X93863688Y-120534850D02*
X93863683Y-120534845D01*
G75*
G02*
X93777655Y-118946183I751317J837345D01*
G01*
X95087657Y-117486183D01*
G75*
G02*
X96676319Y-117400155I837345J-751317D01*
G01*
X96676319Y-117400155D01*
G75*
G02*
X96762347Y-118988817I-751317J-837345D01*
G01*
X95452345Y-120448817D01*
G75*
G02*
X93863683Y-120534845I-837345J751317D01*
G01*
G37*
D21*
X98425000Y-122237500D03*
D20*
X95925000Y-118237500D03*
D22*
X93345000Y-122237500D03*
X103505000Y-122237500D03*
%TD*%
%TO.C,MX21*%
G36*
G01*
X138948483Y-61709895D02*
X138947597Y-61709834D01*
G75*
G02*
X137902666Y-60510097I77403J1122334D01*
G01*
X137942666Y-59930097D01*
G75*
G02*
X139142403Y-58885166I1122334J-77403D01*
G01*
X139142403Y-58885166D01*
G75*
G02*
X140187334Y-60084903I-77403J-1122334D01*
G01*
X140147334Y-60664903D01*
G75*
G02*
X138947597Y-61709834I-1122334J77403D01*
G01*
G37*
D20*
X139065000Y-60007500D03*
G36*
G01*
X131963688Y-63384850D02*
X131963683Y-63384845D01*
G75*
G02*
X131877655Y-61796183I751317J837345D01*
G01*
X133187657Y-60336183D01*
G75*
G02*
X134776319Y-60250155I837345J-751317D01*
G01*
X134776319Y-60250155D01*
G75*
G02*
X134862347Y-61838817I-751317J-837345D01*
G01*
X133552345Y-63298817D01*
G75*
G02*
X131963683Y-63384845I-837345J751317D01*
G01*
G37*
D21*
X136525000Y-65087500D03*
D20*
X134025000Y-61087500D03*
D22*
X131445000Y-65087500D03*
X141605000Y-65087500D03*
%TD*%
%TO.C,MX24*%
G36*
G01*
X153235983Y-118859895D02*
X153235097Y-118859834D01*
G75*
G02*
X152190166Y-117660097I77403J1122334D01*
G01*
X152230166Y-117080097D01*
G75*
G02*
X153429903Y-116035166I1122334J-77403D01*
G01*
X153429903Y-116035166D01*
G75*
G02*
X154474834Y-117234903I-77403J-1122334D01*
G01*
X154434834Y-117814903D01*
G75*
G02*
X153235097Y-118859834I-1122334J77403D01*
G01*
G37*
D20*
X153352500Y-117157500D03*
G36*
G01*
X146251188Y-120534850D02*
X146251183Y-120534845D01*
G75*
G02*
X146165155Y-118946183I751317J837345D01*
G01*
X147475157Y-117486183D01*
G75*
G02*
X149063819Y-117400155I837345J-751317D01*
G01*
X149063819Y-117400155D01*
G75*
G02*
X149149847Y-118988817I-751317J-837345D01*
G01*
X147839845Y-120448817D01*
G75*
G02*
X146251183Y-120534845I-837345J751317D01*
G01*
G37*
D21*
X150812500Y-122237500D03*
D20*
X148312500Y-118237500D03*
D22*
X145732500Y-122237500D03*
X155892500Y-122237500D03*
D23*
X138874500Y-129222500D03*
X162750500Y-129222500D03*
D21*
X138874500Y-113982500D03*
X162750500Y-113982500D03*
%TD*%
%TO.C,MX29*%
G36*
G01*
X181810983Y-80759895D02*
X181810097Y-80759834D01*
G75*
G02*
X180765166Y-79560097I77403J1122334D01*
G01*
X180805166Y-78980097D01*
G75*
G02*
X182004903Y-77935166I1122334J-77403D01*
G01*
X182004903Y-77935166D01*
G75*
G02*
X183049834Y-79134903I-77403J-1122334D01*
G01*
X183009834Y-79714903D01*
G75*
G02*
X181810097Y-80759834I-1122334J77403D01*
G01*
G37*
D20*
X181927500Y-79057500D03*
G36*
G01*
X174826188Y-82434850D02*
X174826183Y-82434845D01*
G75*
G02*
X174740155Y-80846183I751317J837345D01*
G01*
X176050157Y-79386183D01*
G75*
G02*
X177638819Y-79300155I837345J-751317D01*
G01*
X177638819Y-79300155D01*
G75*
G02*
X177724847Y-80888817I-751317J-837345D01*
G01*
X176414845Y-82348817D01*
G75*
G02*
X174826183Y-82434845I-837345J751317D01*
G01*
G37*
D21*
X179387500Y-84137500D03*
D20*
X176887500Y-80137500D03*
D22*
X174307500Y-84137500D03*
X184467500Y-84137500D03*
%TD*%
%TO.C,MX28*%
G36*
G01*
X177048483Y-61709895D02*
X177047597Y-61709834D01*
G75*
G02*
X176002666Y-60510097I77403J1122334D01*
G01*
X176042666Y-59930097D01*
G75*
G02*
X177242403Y-58885166I1122334J-77403D01*
G01*
X177242403Y-58885166D01*
G75*
G02*
X178287334Y-60084903I-77403J-1122334D01*
G01*
X178247334Y-60664903D01*
G75*
G02*
X177047597Y-61709834I-1122334J77403D01*
G01*
G37*
D20*
X177165000Y-60007500D03*
G36*
G01*
X170063688Y-63384850D02*
X170063683Y-63384845D01*
G75*
G02*
X169977655Y-61796183I751317J837345D01*
G01*
X171287657Y-60336183D01*
G75*
G02*
X172876319Y-60250155I837345J-751317D01*
G01*
X172876319Y-60250155D01*
G75*
G02*
X172962347Y-61838817I-751317J-837345D01*
G01*
X171652345Y-63298817D01*
G75*
G02*
X170063683Y-63384845I-837345J751317D01*
G01*
G37*
D21*
X174625000Y-65087500D03*
D20*
X172125000Y-61087500D03*
D22*
X169545000Y-65087500D03*
X179705000Y-65087500D03*
%TD*%
%TO.C,MX26*%
G36*
G01*
X162760983Y-80759895D02*
X162760097Y-80759834D01*
G75*
G02*
X161715166Y-79560097I77403J1122334D01*
G01*
X161755166Y-78980097D01*
G75*
G02*
X162954903Y-77935166I1122334J-77403D01*
G01*
X162954903Y-77935166D01*
G75*
G02*
X163999834Y-79134903I-77403J-1122334D01*
G01*
X163959834Y-79714903D01*
G75*
G02*
X162760097Y-80759834I-1122334J77403D01*
G01*
G37*
D20*
X162877500Y-79057500D03*
G36*
G01*
X155776188Y-82434850D02*
X155776183Y-82434845D01*
G75*
G02*
X155690155Y-80846183I751317J837345D01*
G01*
X157000157Y-79386183D01*
G75*
G02*
X158588819Y-79300155I837345J-751317D01*
G01*
X158588819Y-79300155D01*
G75*
G02*
X158674847Y-80888817I-751317J-837345D01*
G01*
X157364845Y-82348817D01*
G75*
G02*
X155776183Y-82434845I-837345J751317D01*
G01*
G37*
D21*
X160337500Y-84137500D03*
D20*
X157837500Y-80137500D03*
D22*
X155257500Y-84137500D03*
X165417500Y-84137500D03*
%TD*%
%TO.C,MX20*%
G36*
G01*
X122279733Y-118859895D02*
X122278847Y-118859834D01*
G75*
G02*
X121233916Y-117660097I77403J1122334D01*
G01*
X121273916Y-117080097D01*
G75*
G02*
X122473653Y-116035166I1122334J-77403D01*
G01*
X122473653Y-116035166D01*
G75*
G02*
X123518584Y-117234903I-77403J-1122334D01*
G01*
X123478584Y-117814903D01*
G75*
G02*
X122278847Y-118859834I-1122334J77403D01*
G01*
G37*
D20*
X122396250Y-117157500D03*
G36*
G01*
X115294938Y-120534850D02*
X115294933Y-120534845D01*
G75*
G02*
X115208905Y-118946183I751317J837345D01*
G01*
X116518907Y-117486183D01*
G75*
G02*
X118107569Y-117400155I837345J-751317D01*
G01*
X118107569Y-117400155D01*
G75*
G02*
X118193597Y-118988817I-751317J-837345D01*
G01*
X116883595Y-120448817D01*
G75*
G02*
X115294933Y-120534845I-837345J751317D01*
G01*
G37*
D21*
X119856250Y-122237500D03*
D20*
X117356250Y-118237500D03*
D22*
X114776250Y-122237500D03*
X124936250Y-122237500D03*
%TD*%
%TO.C,MX15*%
G36*
G01*
X110373483Y-99809895D02*
X110372597Y-99809834D01*
G75*
G02*
X109327666Y-98610097I77403J1122334D01*
G01*
X109367666Y-98030097D01*
G75*
G02*
X110567403Y-96985166I1122334J-77403D01*
G01*
X110567403Y-96985166D01*
G75*
G02*
X111612334Y-98184903I-77403J-1122334D01*
G01*
X111572334Y-98764903D01*
G75*
G02*
X110372597Y-99809834I-1122334J77403D01*
G01*
G37*
D20*
X110490000Y-98107500D03*
G36*
G01*
X103388688Y-101484850D02*
X103388683Y-101484845D01*
G75*
G02*
X103302655Y-99896183I751317J837345D01*
G01*
X104612657Y-98436183D01*
G75*
G02*
X106201319Y-98350155I837345J-751317D01*
G01*
X106201319Y-98350155D01*
G75*
G02*
X106287347Y-99938817I-751317J-837345D01*
G01*
X104977345Y-101398817D01*
G75*
G02*
X103388683Y-101484845I-837345J751317D01*
G01*
G37*
D21*
X107950000Y-103187500D03*
D20*
X105450000Y-99187500D03*
D22*
X102870000Y-103187500D03*
X113030000Y-103187500D03*
%TD*%
%TO.C,MX30*%
G36*
G01*
X186573483Y-99809895D02*
X186572597Y-99809834D01*
G75*
G02*
X185527666Y-98610097I77403J1122334D01*
G01*
X185567666Y-98030097D01*
G75*
G02*
X186767403Y-96985166I1122334J-77403D01*
G01*
X186767403Y-96985166D01*
G75*
G02*
X187812334Y-98184903I-77403J-1122334D01*
G01*
X187772334Y-98764903D01*
G75*
G02*
X186572597Y-99809834I-1122334J77403D01*
G01*
G37*
D20*
X186690000Y-98107500D03*
G36*
G01*
X179588688Y-101484850D02*
X179588683Y-101484845D01*
G75*
G02*
X179502655Y-99896183I751317J837345D01*
G01*
X180812657Y-98436183D01*
G75*
G02*
X182401319Y-98350155I837345J-751317D01*
G01*
X182401319Y-98350155D01*
G75*
G02*
X182487347Y-99938817I-751317J-837345D01*
G01*
X181177345Y-101398817D01*
G75*
G02*
X179588683Y-101484845I-837345J751317D01*
G01*
G37*
D21*
X184150000Y-103187500D03*
D20*
X181650000Y-99187500D03*
D22*
X179070000Y-103187500D03*
X189230000Y-103187500D03*
%TD*%
%TO.C,MX19*%
G36*
G01*
X129423483Y-99809895D02*
X129422597Y-99809834D01*
G75*
G02*
X128377666Y-98610097I77403J1122334D01*
G01*
X128417666Y-98030097D01*
G75*
G02*
X129617403Y-96985166I1122334J-77403D01*
G01*
X129617403Y-96985166D01*
G75*
G02*
X130662334Y-98184903I-77403J-1122334D01*
G01*
X130622334Y-98764903D01*
G75*
G02*
X129422597Y-99809834I-1122334J77403D01*
G01*
G37*
D20*
X129540000Y-98107500D03*
G36*
G01*
X122438688Y-101484850D02*
X122438683Y-101484845D01*
G75*
G02*
X122352655Y-99896183I751317J837345D01*
G01*
X123662657Y-98436183D01*
G75*
G02*
X125251319Y-98350155I837345J-751317D01*
G01*
X125251319Y-98350155D01*
G75*
G02*
X125337347Y-99938817I-751317J-837345D01*
G01*
X124027345Y-101398817D01*
G75*
G02*
X122438683Y-101484845I-837345J751317D01*
G01*
G37*
D21*
X127000000Y-103187500D03*
D20*
X124500000Y-99187500D03*
D22*
X121920000Y-103187500D03*
X132080000Y-103187500D03*
%TD*%
D15*
%TO.C,D47*%
X257302000Y-37973000D03*
D16*
X257302000Y-45593000D03*
%TD*%
%TO.C,D46*%
X261112000Y-47625000D03*
D15*
X261112000Y-40005000D03*
%TD*%
%TO.C,D45*%
X264922000Y-42037000D03*
D16*
X264922000Y-49657000D03*
%TD*%
D15*
%TO.C,D44*%
X268732000Y-44069000D03*
D16*
X268732000Y-51689000D03*
%TD*%
D15*
%TO.C,D43*%
X253492000Y-37973000D03*
D16*
X253492000Y-45593000D03*
%TD*%
D15*
%TO.C,D42*%
X249682000Y-40005000D03*
D16*
X249682000Y-47625000D03*
%TD*%
D15*
%TO.C,D41*%
X245872000Y-42037000D03*
D16*
X245872000Y-49657000D03*
%TD*%
D15*
%TO.C,D40*%
X242062000Y-44069000D03*
D16*
X242062000Y-51689000D03*
%TD*%
D15*
%TO.C,D39*%
X226822000Y-37973000D03*
D16*
X226822000Y-45593000D03*
%TD*%
D15*
%TO.C,D38*%
X230632000Y-40005000D03*
D16*
X230632000Y-47625000D03*
%TD*%
D15*
%TO.C,D37*%
X234442000Y-42037000D03*
D16*
X234442000Y-49657000D03*
%TD*%
D15*
%TO.C,D36*%
X238252000Y-44069000D03*
D16*
X238252000Y-51689000D03*
%TD*%
D15*
%TO.C,D35*%
X223012000Y-37973000D03*
D16*
X223012000Y-45593000D03*
%TD*%
D15*
%TO.C,D34*%
X219202000Y-40005000D03*
D16*
X219202000Y-47625000D03*
%TD*%
D15*
%TO.C,D33*%
X215392000Y-42037000D03*
D16*
X215392000Y-49657000D03*
%TD*%
D15*
%TO.C,D32*%
X211582000Y-44069000D03*
D16*
X211582000Y-51689000D03*
%TD*%
D15*
%TO.C,D31*%
X196342000Y-37973000D03*
D16*
X196342000Y-45593000D03*
%TD*%
D15*
%TO.C,D30*%
X200152000Y-40005000D03*
D16*
X200152000Y-47625000D03*
%TD*%
D15*
%TO.C,D29*%
X203962000Y-42037000D03*
D16*
X203962000Y-49657000D03*
%TD*%
D15*
%TO.C,D28*%
X207772000Y-44069000D03*
D16*
X207772000Y-51689000D03*
%TD*%
D15*
%TO.C,D27*%
X192532000Y-40005000D03*
D16*
X192532000Y-47625000D03*
%TD*%
D15*
%TO.C,D26*%
X188722000Y-42037000D03*
D16*
X188722000Y-49657000D03*
%TD*%
D15*
%TO.C,D25*%
X184912000Y-44069000D03*
D16*
X184912000Y-51689000D03*
%TD*%
D15*
%TO.C,D24*%
X109220000Y-37973000D03*
D16*
X109220000Y-45593000D03*
%TD*%
D15*
%TO.C,D23*%
X113030000Y-40005000D03*
D16*
X113030000Y-47625000D03*
%TD*%
D15*
%TO.C,D22*%
X116840000Y-42037000D03*
D16*
X116840000Y-49657000D03*
%TD*%
D15*
%TO.C,D21*%
X120650000Y-44069000D03*
D16*
X120650000Y-51689000D03*
%TD*%
D15*
%TO.C,D20*%
X105410000Y-37973000D03*
D16*
X105410000Y-45593000D03*
%TD*%
D15*
%TO.C,D19*%
X101600000Y-40005000D03*
D16*
X101600000Y-47625000D03*
%TD*%
D15*
%TO.C,D18*%
X97790000Y-42037000D03*
D16*
X97790000Y-49657000D03*
%TD*%
D15*
%TO.C,D17*%
X93980000Y-44069000D03*
D16*
X93980000Y-51689000D03*
%TD*%
D15*
%TO.C,D16*%
X78740000Y-37973000D03*
D16*
X78740000Y-45593000D03*
%TD*%
D15*
%TO.C,D15*%
X82550000Y-40005000D03*
D16*
X82550000Y-47625000D03*
%TD*%
D15*
%TO.C,D14*%
X86360000Y-42037000D03*
D16*
X86360000Y-49657000D03*
%TD*%
D15*
%TO.C,D13*%
X90170000Y-44069000D03*
D16*
X90170000Y-51689000D03*
%TD*%
D15*
%TO.C,D12*%
X74930000Y-37973000D03*
D16*
X74930000Y-45593000D03*
%TD*%
D15*
%TO.C,D11*%
X71120000Y-40005000D03*
D16*
X71120000Y-47625000D03*
%TD*%
D15*
%TO.C,D10*%
X67310000Y-42037000D03*
D16*
X67310000Y-49657000D03*
%TD*%
D15*
%TO.C,D9*%
X63500000Y-44069000D03*
D16*
X63500000Y-51689000D03*
%TD*%
D15*
%TO.C,D8*%
X48260000Y-37973000D03*
D16*
X48260000Y-45593000D03*
%TD*%
D15*
%TO.C,D7*%
X52070000Y-40005000D03*
D16*
X52070000Y-47625000D03*
%TD*%
D15*
%TO.C,D6*%
X55880000Y-42037000D03*
D16*
X55880000Y-49657000D03*
%TD*%
D15*
%TO.C,D5*%
X59690000Y-44069000D03*
D16*
X59690000Y-51689000D03*
%TD*%
D15*
%TO.C,D4*%
X44450000Y-37973000D03*
D16*
X44450000Y-45593000D03*
%TD*%
D15*
%TO.C,D3*%
X40640000Y-40005000D03*
D16*
X40640000Y-47625000D03*
%TD*%
D15*
%TO.C,D2*%
X36830000Y-42037000D03*
D16*
X36830000Y-49657000D03*
%TD*%
D15*
%TO.C,D1*%
X33020000Y-44069000D03*
D16*
X33020000Y-51689000D03*
%TD*%
D19*
%TO.C,R4*%
X123571000Y-32258000D03*
D16*
X133731000Y-32258000D03*
%TD*%
%TO.C,R3*%
X123571000Y-28956000D03*
D19*
X133731000Y-28956000D03*
%TD*%
D16*
%TO.C,R2*%
X123571000Y-25654000D03*
D19*
X133731000Y-25654000D03*
%TD*%
D16*
%TO.C,R1*%
X133731000Y-22352000D03*
D19*
X123571000Y-22352000D03*
%TD*%
D24*
%TO.C,J1*%
X166751000Y-26924000D03*
X166751000Y-29464000D03*
X164211000Y-26924000D03*
X164211000Y-29464000D03*
X161671000Y-26924000D03*
D25*
X161671000Y-29464000D03*
%TD*%
D26*
%TO.C,Y1*%
X146050000Y-24711000D03*
X146050000Y-29591000D03*
%TD*%
D16*
%TO.C,U1*%
X176911000Y-50292000D03*
X128651000Y-35052000D03*
X174371000Y-50292000D03*
X131191000Y-35052000D03*
X171831000Y-50292000D03*
X133731000Y-35052000D03*
X169291000Y-50292000D03*
X136271000Y-35052000D03*
X166751000Y-50292000D03*
X138811000Y-35052000D03*
X164211000Y-50292000D03*
X141351000Y-35052000D03*
X161671000Y-50292000D03*
X143891000Y-35052000D03*
X159131000Y-50292000D03*
X146431000Y-35052000D03*
X156591000Y-50292000D03*
X148971000Y-35052000D03*
X154051000Y-50292000D03*
X151511000Y-35052000D03*
X151511000Y-50292000D03*
X154051000Y-35052000D03*
X148971000Y-50292000D03*
X156591000Y-35052000D03*
X146431000Y-50292000D03*
X159131000Y-35052000D03*
X143891000Y-50292000D03*
X161671000Y-35052000D03*
X141351000Y-50292000D03*
X164211000Y-35052000D03*
X138811000Y-50292000D03*
X166751000Y-35052000D03*
X136271000Y-50292000D03*
X169291000Y-35052000D03*
X133731000Y-50292000D03*
X171831000Y-35052000D03*
X131191000Y-50292000D03*
X174371000Y-35052000D03*
X128651000Y-50292000D03*
D15*
X176911000Y-35052000D03*
%TD*%
D27*
%TO.C,SW2*%
X184635000Y-29464000D03*
X184635000Y-24964000D03*
X191135000Y-29464000D03*
X191135000Y-24964000D03*
%TD*%
%TO.C,SW1*%
X178331000Y-24964000D03*
X178331000Y-29464000D03*
X171831000Y-24964000D03*
X171831000Y-29464000D03*
%TD*%
D28*
%TO.C,F1*%
X97155000Y-33401000D03*
X92055000Y-31801000D03*
%TD*%
D29*
%TO.C,D65*%
X86397000Y-29896000D03*
X86397000Y-33096000D03*
X81497000Y-29896000D03*
X81497000Y-33096000D03*
%TD*%
%TO.C,D64*%
X40677000Y-29896000D03*
X40677000Y-33096000D03*
X35777000Y-29896000D03*
X35777000Y-33096000D03*
%TD*%
D30*
%TO.C,D63*%
X32309000Y-73242000D03*
X35509000Y-73242000D03*
X32309000Y-78142000D03*
X35509000Y-78142000D03*
%TD*%
%TO.C,D62*%
X32309000Y-101309000D03*
X35509000Y-101309000D03*
X32309000Y-106209000D03*
X35509000Y-106209000D03*
%TD*%
D29*
%TO.C,D61*%
X48350000Y-130505000D03*
X48350000Y-127305000D03*
X53250000Y-130505000D03*
X53250000Y-127305000D03*
%TD*%
%TO.C,D60*%
X83910000Y-130505000D03*
X83910000Y-127305000D03*
X88810000Y-130505000D03*
X88810000Y-127305000D03*
%TD*%
%TO.C,D59*%
X112485000Y-130505000D03*
X112485000Y-127305000D03*
X117385000Y-130505000D03*
X117385000Y-127305000D03*
%TD*%
%TO.C,D58*%
X148299000Y-130505000D03*
X148299000Y-127305000D03*
X153199000Y-130505000D03*
X153199000Y-127305000D03*
%TD*%
%TO.C,D57*%
X184240000Y-130505000D03*
X184240000Y-127305000D03*
X189140000Y-130505000D03*
X189140000Y-127305000D03*
%TD*%
%TO.C,D56*%
X212815000Y-130505000D03*
X212815000Y-127305000D03*
X217715000Y-130505000D03*
X217715000Y-127305000D03*
%TD*%
%TO.C,D55*%
X248375000Y-130505000D03*
X248375000Y-127305000D03*
X253275000Y-130505000D03*
X253275000Y-127305000D03*
%TD*%
D30*
%TO.C,D54*%
X268935000Y-94906000D03*
X265735000Y-94906000D03*
X268935000Y-90006000D03*
X265735000Y-90006000D03*
%TD*%
%TO.C,D53*%
X267538000Y-62775000D03*
X264338000Y-62775000D03*
X267538000Y-57875000D03*
X264338000Y-57875000D03*
%TD*%
D29*
%TO.C,D52*%
X265975000Y-29896000D03*
X265975000Y-33096000D03*
X261075000Y-29896000D03*
X261075000Y-33096000D03*
%TD*%
%TO.C,D51*%
X220255000Y-29896000D03*
X220255000Y-33096000D03*
X215355000Y-29896000D03*
X215355000Y-33096000D03*
%TD*%
%TO.C,D50*%
X155231000Y-37770000D03*
X155231000Y-40970000D03*
X150331000Y-37770000D03*
X150331000Y-40970000D03*
%TD*%
D19*
%TO.C,C5*%
X155291800Y-22733000D03*
X150291800Y-22733000D03*
%TD*%
%TO.C,C4*%
X155291800Y-26924000D03*
X150291800Y-26924000D03*
%TD*%
%TO.C,C2*%
X155291800Y-53594000D03*
X150291800Y-53594000D03*
%TD*%
%TO.C,C1*%
X109220000Y-31401000D03*
D15*
X109220000Y-33401000D03*
%TD*%
M02*
