M48
; DRILL file {KiCad (5.1.10)-1} date 08/29/21 21:54:12
; FORMAT={-:-/ absolute / inch / decimal}
; #@! TF.CreationDate,2021-08-29T21:54:12+02:00
; #@! TF.GenerationSoftware,Kicad,Pcbnew,(5.1.10)-1
; #@! TF.FileFunction,Plated,1,2,PTH
FMAT,2
INCH
T1C0.0157
T2C0.0276
T3C0.0280
T4C0.0315
T5C0.0320
T6C0.0394
T7C0.0433
T8C0.0579
T9C0.1063
%
G90
G05
T1
X4.965Y-1.795
X6.015Y-1.455
X6.015Y-1.795
T2
X3.662Y-1.09
X3.6935Y-1.0428
X3.725Y-1.09
X3.7565Y-1.0428
X3.788Y-1.09
T3
X3.6242Y-1.252
X3.825Y-1.315
T4
X1.3Y-1.735
X1.3Y-2.035
X1.45Y-1.655
X1.45Y-1.955
X1.6Y-1.575
X1.6Y-1.875
X1.75Y-1.495
X1.75Y-1.795
X1.9Y-1.495
X1.9Y-1.795
X2.05Y-1.575
X2.05Y-1.875
X2.2Y-1.655
X2.2Y-1.955
X2.35Y-1.735
X2.35Y-2.035
X2.5Y-1.735
X2.5Y-2.035
X2.65Y-1.655
X2.65Y-1.955
X2.8Y-1.575
X2.8Y-1.875
X2.95Y-1.495
X2.95Y-1.795
X3.1Y-1.495
X3.1Y-1.795
X3.25Y-1.575
X3.25Y-1.875
X3.4Y-1.655
X3.4Y-1.955
X3.55Y-1.735
X3.55Y-2.035
X3.7Y-1.735
X3.7Y-2.035
X3.85Y-1.655
X3.85Y-1.955
X4.0Y-1.575
X4.0Y-1.875
X4.15Y-0.945
X4.15Y-1.075
X4.15Y-1.495
X4.15Y-1.795
X4.3Y-1.2363
X4.3Y-1.315
X4.3Y-1.495
X4.3Y-1.795
X4.45Y-0.945
X4.45Y-1.075
X4.45Y-1.575
X4.45Y-1.875
X4.6Y-1.655
X4.6Y-1.955
X4.75Y-1.735
X4.75Y-2.035
X4.865Y-0.88
X4.865Y-1.01
X4.865Y-1.14
X4.865Y-1.27
X5.065Y-1.38
X5.065Y-1.98
X5.165Y-1.38
X5.165Y-1.98
X5.265Y-0.88
X5.265Y-1.01
X5.265Y-1.14
X5.265Y-1.27
X5.265Y-1.38
X5.265Y-1.98
X5.365Y-1.38
X5.365Y-1.98
X5.465Y-1.38
X5.465Y-1.98
X5.565Y-1.38
X5.565Y-1.98
X5.665Y-1.38
X5.665Y-1.98
X5.75Y-0.9729
X5.75Y-1.165
X5.765Y-1.38
X5.765Y-1.98
X5.865Y-1.38
X5.865Y-1.98
X5.917Y-0.895
X5.917Y-1.06
X5.917Y-2.11
X5.9171Y-1.24
X5.965Y-1.38
X5.965Y-1.98
X6.065Y-1.38
X6.065Y-1.98
X6.1139Y-0.895
X6.1139Y-1.06
X6.1139Y-2.11
X6.114Y-1.24
X6.165Y-1.38
X6.165Y-1.98
X6.265Y-1.38
X6.265Y-1.98
X6.365Y-1.38
X6.365Y-1.98
X6.465Y-1.38
X6.465Y-1.98
X6.565Y-1.38
X6.565Y-1.98
X6.665Y-1.38
X6.665Y-1.98
X6.765Y-1.38
X6.765Y-1.98
X6.865Y-1.38
X6.865Y-1.98
X6.965Y-1.38
X6.965Y-1.98
X7.28Y-1.735
X7.28Y-2.035
X7.43Y-1.655
X7.43Y-1.955
X7.58Y-1.575
X7.58Y-1.875
X7.73Y-1.495
X7.73Y-1.795
X7.88Y-1.575
X7.88Y-1.875
X8.03Y-1.655
X8.03Y-1.955
X8.18Y-1.735
X8.18Y-2.035
X8.33Y-1.735
X8.33Y-2.035
X8.48Y-1.655
X8.48Y-1.955
X8.63Y-1.575
X8.63Y-1.875
X8.78Y-1.495
X8.78Y-1.795
X8.93Y-1.495
X8.93Y-1.795
X9.08Y-1.575
X9.08Y-1.875
X9.23Y-1.655
X9.23Y-1.955
X9.38Y-1.735
X9.38Y-2.035
X9.53Y-1.735
X9.53Y-2.035
X9.68Y-1.655
X9.68Y-1.955
X9.83Y-1.575
X9.83Y-1.875
X9.98Y-1.495
X9.98Y-1.795
X10.13Y-1.495
X10.13Y-1.795
X10.28Y-1.575
X10.28Y-1.875
X10.43Y-1.655
X10.43Y-1.955
X10.58Y-1.735
X10.58Y-2.035
T5
X1.75Y-0.94
X1.75Y-1.04
X1.75Y-1.14
X1.75Y-1.24
T6
X6.365Y-1.06
X6.365Y-1.16
X6.465Y-1.06
X6.465Y-1.16
X6.565Y-1.06
X6.565Y-1.16
T7
X6.765Y-0.9828
X6.765Y-1.16
X7.0209Y-0.9828
X7.0209Y-1.16
X7.2691Y-0.9828
X7.2691Y-1.16
X7.525Y-0.9828
X7.525Y-1.16
T8
X1.475Y-2.4625
X1.475Y-4.7125
X1.5266Y-2.405
X1.5266Y-4.655
X1.5687Y-3.2125
X1.6203Y-3.155
X1.6625Y-3.9625
X1.7141Y-3.905
X1.7234Y-2.3853
X1.7234Y-4.6353
X1.725Y-2.3625
X1.725Y-4.6125
X1.8172Y-3.1353
X1.8187Y-3.1125
X1.9109Y-3.8853
X1.9125Y-3.8625
X2.225Y-2.4625
X2.225Y-4.7125
X2.2766Y-2.405
X2.2766Y-4.655
X2.4125Y-3.2125
X2.4641Y-3.155
X2.4734Y-2.3853
X2.4734Y-4.6353
X2.475Y-2.3625
X2.475Y-4.6125
X2.6Y-3.9625
X2.6516Y-3.905
X2.6609Y-3.1353
X2.6625Y-3.1125
X2.8484Y-3.8853
X2.85Y-3.8625
X2.975Y-2.4625
X2.975Y-4.7125
X3.0266Y-2.405
X3.0266Y-4.655
X3.1625Y-3.2125
X3.2141Y-3.155
X3.2234Y-2.3853
X3.2234Y-4.6353
X3.225Y-2.3625
X3.225Y-4.6125
X3.35Y-3.9625
X3.4016Y-3.905
X3.4109Y-3.1353
X3.4125Y-3.1125
X3.5984Y-3.8853
X3.6Y-3.8625
X3.725Y-2.4625
X3.725Y-4.7125
X3.7766Y-2.405
X3.7766Y-4.655
X3.9125Y-3.2125
X3.9641Y-3.155
X3.9734Y-2.3853
X3.9734Y-4.6353
X3.975Y-2.3625
X3.975Y-4.6125
X4.1Y-3.9625
X4.1516Y-3.905
X4.1609Y-3.1353
X4.1625Y-3.1125
X4.3484Y-3.8853
X4.35Y-3.8625
X4.475Y-2.4625
X4.5266Y-2.405
X4.5687Y-4.7125
X4.6203Y-4.655
X4.6625Y-3.2125
X4.7141Y-3.155
X4.7234Y-2.3853
X4.725Y-2.3625
X4.8172Y-4.6353
X4.8187Y-4.6125
X4.85Y-3.9625
X4.9016Y-3.905
X4.9109Y-3.1353
X4.9125Y-3.1125
X5.0984Y-3.8853
X5.1Y-3.8625
X5.225Y-2.4625
X5.2766Y-2.405
X5.4125Y-3.2125
X5.4641Y-3.155
X5.4734Y-2.3853
X5.475Y-2.3625
X5.6Y-3.9625
X5.6516Y-3.905
X5.6609Y-3.1353
X5.6625Y-3.1125
X5.7875Y-4.7125
X5.8391Y-4.655
X5.8484Y-3.8853
X5.85Y-3.8625
X5.975Y-2.4625
X6.0266Y-2.405
X6.0359Y-4.6353
X6.0375Y-4.6125
X6.1625Y-3.2125
X6.2141Y-3.155
X6.2234Y-2.3853
X6.225Y-2.3625
X6.35Y-3.9625
X6.4016Y-3.905
X6.4109Y-3.1353
X6.4125Y-3.1125
X6.5984Y-3.8853
X6.6Y-3.8625
X6.725Y-2.4625
X6.7766Y-2.405
X6.9125Y-3.2125
X6.9641Y-3.155
X6.9734Y-2.3853
X6.975Y-2.3625
X7.0062Y-4.7125
X7.0578Y-4.655
X7.1Y-3.9625
X7.1516Y-3.905
X7.1609Y-3.1353
X7.1625Y-3.1125
X7.2547Y-4.6353
X7.2562Y-4.6125
X7.3484Y-3.8853
X7.35Y-3.8625
X7.475Y-2.4625
X7.5266Y-2.405
X7.6625Y-3.2125
X7.7141Y-3.155
X7.7234Y-2.3853
X7.725Y-2.3625
X7.85Y-3.9625
X7.85Y-4.7125
X7.9016Y-3.905
X7.9016Y-4.655
X7.9109Y-3.1353
X7.9125Y-3.1125
X8.0984Y-3.8853
X8.0984Y-4.6353
X8.1Y-3.8625
X8.1Y-4.6125
X8.225Y-2.4625
X8.2766Y-2.405
X8.4125Y-3.2125
X8.4641Y-3.155
X8.4734Y-2.3853
X8.475Y-2.3625
X8.6Y-3.9625
X8.6Y-4.7125
X8.6516Y-3.905
X8.6516Y-4.655
X8.6609Y-3.1353
X8.6625Y-3.1125
X8.8484Y-3.8853
X8.8484Y-4.6353
X8.85Y-3.8625
X8.85Y-4.6125
X8.975Y-2.4625
X9.0266Y-2.405
X9.1625Y-3.2125
X9.2141Y-3.155
X9.2234Y-2.3853
X9.225Y-2.3625
X9.35Y-3.9625
X9.35Y-4.7125
X9.4016Y-3.905
X9.4016Y-4.655
X9.4109Y-3.1353
X9.4125Y-3.1125
X9.5984Y-3.8853
X9.5984Y-4.6353
X9.6Y-3.8625
X9.6Y-4.6125
X9.9125Y-2.4625
X9.9641Y-2.405
X10.0062Y-3.2125
X10.0578Y-3.155
X10.1Y-3.9625
X10.1Y-4.7125
X10.1516Y-3.905
X10.1516Y-4.655
X10.1609Y-2.3853
X10.1625Y-2.3625
X10.2547Y-3.1353
X10.2562Y-3.1125
X10.3484Y-3.8853
X10.3484Y-4.6353
X10.35Y-3.8625
X10.35Y-4.6125
T9
X1.345Y-0.96
X2.35Y-4.3
X2.75Y-2.915
X5.935Y-3.655
X8.75Y-2.915
X9.125Y-4.44
X10.53Y-0.96
T2
G00X3.5813Y-0.8676
M15
G01X3.5813Y-0.9148
M16
G05
G00X3.8687Y-0.8676
M15
G01X3.8687Y-0.9148
M16
G05
T0
M30
