M48
; DRILL file {KiCad (5.1.10)-1} date 08/29/21 21:54:12
; FORMAT={-:-/ absolute / inch / decimal}
; #@! TF.CreationDate,2021-08-29T21:54:12+02:00
; #@! TF.GenerationSoftware,Kicad,Pcbnew,(5.1.10)-1
; #@! TF.FileFunction,NonPlated,1,2,NPTH
FMAT,2
INCH
T1C0.0689
T2C0.1200
T3C0.1570
%
G90
G05
T1
X1.425Y-2.5625
X1.425Y-4.8125
X1.5188Y-3.3125
X1.6125Y-4.0625
X1.825Y-2.5625
X1.825Y-4.8125
X1.9187Y-3.3125
X2.0125Y-4.0625
X2.175Y-2.5625
X2.175Y-4.8125
X2.3625Y-3.3125
X2.55Y-4.0625
X2.575Y-2.5625
X2.575Y-4.8125
X2.7625Y-3.3125
X2.925Y-2.5625
X2.925Y-4.8125
X2.95Y-4.0625
X3.1125Y-3.3125
X3.3Y-4.0625
X3.325Y-2.5625
X3.325Y-4.8125
X3.5125Y-3.3125
X3.675Y-2.5625
X3.675Y-4.8125
X3.7Y-4.0625
X3.8625Y-3.3125
X4.05Y-4.0625
X4.075Y-2.5625
X4.075Y-4.8125
X4.2625Y-3.3125
X4.425Y-2.5625
X4.45Y-4.0625
X4.5187Y-4.8125
X4.6125Y-3.3125
X4.8Y-4.0625
X4.825Y-2.5625
X4.9188Y-4.8125
X5.0125Y-3.3125
X5.175Y-2.5625
X5.2Y-4.0625
X5.3625Y-3.3125
X5.55Y-4.0625
X5.575Y-2.5625
X5.7375Y-4.8125
X5.7625Y-3.3125
X5.925Y-2.5625
X5.95Y-4.0625
X6.1125Y-3.3125
X6.1375Y-4.8125
X6.3Y-4.0625
X6.325Y-2.5625
X6.5125Y-3.3125
X6.675Y-2.5625
X6.7Y-4.0625
X6.8625Y-3.3125
X6.9562Y-4.8125
X7.05Y-4.0625
X7.075Y-2.5625
X7.2625Y-3.3125
X7.3563Y-4.8125
X7.425Y-2.5625
X7.45Y-4.0625
X7.6125Y-3.3125
X7.8Y-4.0625
X7.8Y-4.8125
X7.825Y-2.5625
X8.0125Y-3.3125
X8.175Y-2.5625
X8.2Y-4.0625
X8.2Y-4.8125
X8.3625Y-3.3125
X8.55Y-4.0625
X8.55Y-4.8125
X8.575Y-2.5625
X8.7625Y-3.3125
X8.925Y-2.5625
X8.95Y-4.0625
X8.95Y-4.8125
X9.1125Y-3.3125
X9.3Y-4.0625
X9.3Y-4.8125
X9.325Y-2.5625
X9.5125Y-3.3125
X9.7Y-4.0625
X9.7Y-4.8125
X9.8625Y-2.5625
X9.9562Y-3.3125
X10.05Y-4.0625
X10.05Y-4.8125
X10.2625Y-2.5625
X10.3562Y-3.3125
X10.45Y-4.0625
X10.45Y-4.8125
T2
X5.4675Y-5.0875
X6.4075Y-5.0875
T3
X1.625Y-2.5625
X1.625Y-4.8125
X1.7188Y-3.3125
X1.8125Y-4.0625
X2.375Y-2.5625
X2.375Y-4.8125
X2.5625Y-3.3125
X2.75Y-4.0625
X3.125Y-2.5625
X3.125Y-4.8125
X3.3125Y-3.3125
X3.5Y-4.0625
X3.875Y-2.5625
X3.875Y-4.8125
X4.0625Y-3.3125
X4.25Y-4.0625
X4.625Y-2.5625
X4.7188Y-4.8125
X4.8125Y-3.3125
X5.0Y-4.0625
X5.375Y-2.5625
X5.4675Y-4.4875
X5.5625Y-3.3125
X5.75Y-4.0625
X5.9375Y-4.8125
X6.125Y-2.5625
X6.3125Y-3.3125
X6.4075Y-4.4875
X6.5Y-4.0625
X6.875Y-2.5625
X7.0625Y-3.3125
X7.1562Y-4.8125
X7.25Y-4.0625
X7.625Y-2.5625
X7.8125Y-3.3125
X8.0Y-4.0625
X8.0Y-4.8125
X8.375Y-2.5625
X8.5625Y-3.3125
X8.75Y-4.0625
X8.75Y-4.8125
X9.125Y-2.5625
X9.3125Y-3.3125
X9.5Y-4.0625
X9.5Y-4.8125
X10.0625Y-2.5625
X10.1562Y-3.3125
X10.25Y-4.0625
X10.25Y-4.8125
T0
M30
